<?xml version="1.0" encoding="UTF-8" standalone="no"?>
<svg
   width="360pt"
   height="126pt"
   viewBox="0 0 360 126"
   version="1.1"
   id="svg66"
   sodipodi:docname="Formal_Viterbi_GoldOnBlack.svg"
   inkscape:version="1.2.1 (9c6d41e410, 2022-07-14, custom)"
   xmlns:inkscape="http://www.inkscape.org/namespaces/inkscape"
   xmlns:sodipodi="http://sodipodi.sourceforge.net/DTD/sodipodi-0.dtd"
   xmlns="http://www.w3.org/2000/svg"
   xmlns:svg="http://www.w3.org/2000/svg">
  <defs
     id="defs70" />
  <sodipodi:namedview
     id="namedview68"
     pagecolor="#ffffff"
     bordercolor="#666666"
     borderopacity="1.0"
     inkscape:showpageshadow="2"
     inkscape:pageopacity="0.0"
     inkscape:pagecheckerboard="0"
     inkscape:deskcolor="#d1d1d1"
     inkscape:document-units="pt"
     showgrid="false"
     inkscape:zoom="0.82481061"
     inkscape:cx="407.97245"
     inkscape:cy="-278.85189"
     inkscape:window-width="1920"
     inkscape:window-height="1039"
     inkscape:window-x="0"
     inkscape:window-y="41"
     inkscape:window-maximized="1"
     inkscape:current-layer="svg66" />
  <path
     fill-rule="nonzero"
     fill="#231f20"
     fill-opacity="1"
     d="M 360,126 H 0 V 0 h 360 v 126"
     id="path2" />
  <path
     fill-rule="nonzero"
     fill="#ffffff"
     fill-opacity="1"
     d="m 148.55859,25.47266 c 0,-0.29688 0.0547,-0.41407 0.41016,-0.41407 0.58594,0 2.52344,0.17969 7.10937,0.17969 4.92969,0 7.57032,-0.17969 8.09766,-0.17969 0.52734,0 0.58984,0.17969 0.58984,0.41407 v 1.35156 c 0,0.28906 -0.0625,0.52734 -0.46875,0.52734 h -2.82031 c -1.64062,0 -2.46484,0.53125 -2.46484,1.52735 0,0.46875 0.0586,1.17187 0.23437,2 0.35547,2.10937 2.52344,9.09765 3.58594,12.39062 0.69922,2.22656 4.11328,12.32813 5.45703,15.91016 h 0.1211 c 1.23046,-2.75782 5.8164,-14.85547 6.28125,-16.20703 0.58984,-1.58594 2.8164,-8.33985 3.69921,-10.92579 0.46875,-1.46484 0.82422,-2.52343 0.82422,-3.34375 -0.004,-0.70703 -0.41406,-1.35546 -1.8789,-1.35546 h -1.53125 c -0.23438,0 -0.29297,-0.17579 -0.29297,-0.52735 v -1.34765 c 0,-0.29688 0.0586,-0.41407 0.35156,-0.41407 0.53125,0 3.23047,0.17578 6.93359,0.17578 4.28125,0 5.75391,-0.17578 6.28125,-0.17578 0.35547,0 0.41016,0.11719 0.41016,0.41407 v 1.46875 c 0,0.23046 -0.0547,0.40625 -0.41016,0.40625 h -1.58203 c -1.9414,0 -3.05468,0.9414 -4.17187,2.29296 -1.52344,1.88282 -6.22656,13.91797 -7.22266,16.38672 -0.70703,1.9375 -8.28125,20.60938 -8.57812,21.19922 -0.22657,0.46875 -0.52344,0.76172 -0.82032,0.76172 -0.46484,0 -0.69921,-0.58594 -0.99609,-1.34766 -1.875,-5.40625 -6.63672,-18.79296 -7.39844,-20.91015 l -0.58593,-1.99219 c -1.41016,-4.17187 -4.17188,-12.68359 -4.9336,-14.44922 -0.59375,-1.35156 -1.17969,-1.93359 -2.41406,-1.93359 h -1.52344 c -0.23828,0 -0.29297,-0.17969 -0.29297,-0.41406 v -1.46875"
     id="path4" />
  <path
     fill-rule="nonzero"
     fill="#ffffff"
     fill-opacity="1"
     d="m 185.39453,49.72656 c 0,-2 -0.35547,-3.05469 -3.28906,-3.52734 -0.41406,-0.0586 -0.53125,-0.17578 -0.53125,-0.41016 v -0.52734 c 0,-0.17578 0.11719,-0.29297 0.41406,-0.41406 1.87891,-0.70313 4.10938,-1.64454 6.33984,-2.875 0.47266,-0.23438 0.76954,-0.35157 1.11719,-0.35157 0.28906,0 0.35547,0.29297 0.28906,0.70313 -0.11328,1 -0.11328,4.69922 -0.10937,9.57422 v 6.39843 c 0,2.29297 0,4.40625 0.0547,5.05079 0.12109,1.11328 0.29687,1.53125 0.9414,1.53125 h 2.69922 c 0.46875,0 0.58985,0.17187 0.58985,0.52343 v 1 c 0,0.40625 -0.1211,0.58594 -0.52735,0.58594 -0.46875,0 -3.17187,-0.17969 -5.63672,-0.17969 -3.41015,0.004 -5.69922,0.1836 -6.34375,0.1836 -0.29687,0 -0.46875,-0.125 -0.46875,-0.47266 v -1.17187 c 0,-0.35547 0.17188,-0.46875 0.58594,-0.46875 h 2.875 c 0.64453,0 0.88281,-0.23829 0.94531,-1.17579 0.0547,-1.76171 0.0547,-3.58593 0.0547,-5.34765 v -8.62891"
     id="path6" />
  <path
     fill-rule="nonzero"
     fill="#ffffff"
     fill-opacity="1"
     d="m 184.08203,35.99609 c 0,-1.46875 1.23828,-3.05078 3.58203,-3.05078 2.0586,-0.004 3.05469,1.58203 3.05469,2.87891 0,1.51953 -1.05469,3.22656 -3.40234,3.22656 -1.29688,0 -3.23438,-1.17187 -3.23438,-3.05469"
     id="path8" />
  <path
     fill-rule="nonzero"
     fill="#ffffff"
     fill-opacity="1"
     d="m 284.44141,49.72656 c 0,-2 -0.35157,-3.05469 -3.28907,-3.52734 -0.41015,-0.0586 -0.52734,-0.17578 -0.52734,-0.41016 v -0.52734 c 0,-0.17578 0.11719,-0.29297 0.41406,-0.41406 1.875,-0.70313 4.10547,-1.64454 6.33985,-2.875 0.46875,-0.23438 0.76562,-0.35157 1.11718,-0.35157 0.29297,0 0.35547,0.29297 0.29297,0.70313 -0.11719,1 -0.11719,4.69922 -0.11328,9.57422 v 6.39843 c 0,2.29297 0,4.40625 0.0547,5.05079 0.12109,1.11328 0.29297,1.53125 0.9414,1.53125 h 2.70313 c 0.46875,0 0.58594,0.17187 0.58594,0.52343 v 1 c 0,0.40625 -0.11719,0.58594 -0.52735,0.58594 -0.46875,0 -3.17578,-0.17969 -5.64062,-0.17969 -3.40625,0.004 -5.69531,0.1836 -6.34375,0.1836 -0.29297,0 -0.46875,-0.125 -0.46875,-0.47266 v -1.17187 c 0,-0.35547 0.17578,-0.46875 0.58984,-0.46875 h 2.875 c 0.64453,0 0.875,-0.23829 0.94141,-1.17579 0.0586,-1.76171 0.0586,-3.58593 0.0586,-5.34765 l -0.004,-8.62891"
     id="path10" />
  <path
     fill-rule="nonzero"
     fill="#ffffff"
     fill-opacity="1"
     d="m 283.13281,35.99609 c 0,-1.46875 1.23438,-3.05078 3.58203,-3.05078 2.05469,-0.004 3.05469,1.58203 3.05469,2.87891 0,1.51953 -1.05469,3.22656 -3.40625,3.22656 -1.29297,0 -3.23047,-1.17187 -3.23047,-3.05469"
     id="path12" />
  <path
     fill-rule="nonzero"
     fill="#ffffff"
     fill-opacity="1"
     d="m 202.65625,59.47266 c 0,4.40625 1.99609,5.17187 3.05859,5.17187 1.35157,0 3.05469,-0.23828 3.8711,-0.76953 0.29687,-0.17188 0.53125,-0.11328 0.70703,0.11719 l 0.29687,0.52734 c 0.17188,0.23438 0.0547,0.46875 -0.125,0.64844 -0.58203,0.58984 -2.99218,2.35156 -6.51562,2.35156 -2.87891,0 -5.69531,-2.76172 -5.69531,-4.99219 0,-2.41015 0.17968,-7.57812 0.17968,-8.39843 v -1.29297 c 0,-1.0586 0.0508,-4.99219 0.11328,-7.45703 h -3.58203 c -0.53125,0 -0.88281,-0.23438 -0.88281,-0.70704 0,-0.46875 0.35156,-0.64453 1.05469,-1.05468 1.41406,-0.82422 5.93359,-5.40235 6.69922,-7.40235 0.17187,-0.46875 0.46875,-0.58593 0.82031,-0.58593 0.47266,0 0.58984,0.41406 0.58984,0.88281 l -0.29687,5.8125 h 8.16406 c 0.35156,0 0.53125,0.29297 0.41016,0.52734 l -0.58594,2.05469 c -0.0625,0.29687 -0.17578,0.46875 -0.53125,0.46875 l -7.57031,0.004 c -0.1211,2.69921 -0.17969,5.51953 -0.17969,8.21875 v 5.875"
     id="path14" />
  <path
     fill-rule="nonzero"
     fill="#ffffff"
     fill-opacity="1"
     d="m 217.04297,51.19141 c -0.11719,0.52734 -0.17969,1.46875 -0.17969,2.82031 0,5.7539 3.64844,10.09375 8.34375,10.09375 3.58203,0 6.10547,-2.05469 7.10547,-3.99219 0.11719,-0.23047 0.35156,-0.34766 0.53125,-0.28906 l 0.75781,0.41015 c 0.1836,0.0547 0.29688,0.23438 0,0.87891 -1.05469,2.35156 -4.10937,6.40234 -9.33594,6.40234 -3.34765,0 -7.04296,-0.99609 -9.22265,-4.17187 -2.05469,-2.99219 -2.57813,-5.16406 -2.57813,-9.27344 0,-2.29297 0.58594,-6.22656 3.69141,-9.33984 2.52734,-2.58203 5.46484,-3.11328 8.40234,-3.11328 6.75391,0 8.63282,6.34375 8.63282,8.63281 0,0.82422 -0.70313,0.94141 -1.64454,0.94141 z m 9.33594,-1.76172 c 1.11718,0 1.58203,-0.29297 1.58203,-0.82032 0,-1.35546 -0.69922,-5.22656 -4.51953,-5.22656 -2.58204,0 -5.04688,1.70313 -6.16407,6.04688 h 9.10157"
     id="path16" />
  <path
     fill-rule="nonzero"
     fill="#ffffff"
     fill-opacity="1"
     d="m 239.82422,51.19141 c 0,-2.9961 -0.46875,-3.58594 -2.11328,-4.46485 l -1.11719,-0.58594 C 236.24219,46.02344 236.125,45.96484 236.125,45.72656 V 45.375 c 0,-0.23438 0.11719,-0.34766 0.46875,-0.52734 l 5.8125,-2.9961 c 0.35547,-0.17578 0.58594,-0.23437 0.82422,-0.23437 0.35156,0 0.41015,0.35156 0.41015,0.70312 l 0.29297,4.05469 h 0.23828 c 1.75782,-2.70313 4.51954,-5.10938 7.04688,-5.10938 1.99609,0 2.99219,1.23047 2.99219,2.58204 0,1.70312 -1.41016,2.8789 -2.46875,2.8789 -0.64063,0 -1.22657,-0.23437 -1.69922,-0.46875 -0.46875,-0.29297 -1.17578,-0.46875 -1.9375,-0.46875 -0.94141,0 -2.46485,0.58594 -3.46485,2.46485 -0.35156,0.64062 -0.58984,1.70312 -0.58593,1.8789 v 12.33203 c 0,1.81641 0.41406,2.40625 1.64453,2.40625 h 2.76172 c 0.35156,0 0.41015,0.17578 0.41015,0.53125 v 1.0586 c 0,0.34765 -0.0586,0.52734 -0.29297,0.52734 -0.35546,0 -3.05468,-0.17969 -6.22656,-0.17969 -3.64062,0 -6.10937,0.17969 -6.46094,0.17969 -0.23437,0 -0.35156,-0.12109 -0.35156,-0.58984 v -0.9961 c 0,-0.41406 0.11719,-0.53125 0.64844,-0.53125 h 2.28516 c 0.88281,0 1.29687,-0.35156 1.29687,-1.11328 0.0547,-1.9375 0.0547,-3.99219 0.0547,-7.04687 v -5.51953"
     id="path18" />
  <path
     fill-rule="nonzero"
     fill="#ffffff"
     fill-opacity="1"
     d="m 256.61719,35.15625 c 0,-3.93359 -0.64844,-4.75781 -2.76172,-5.46094 l -0.58594,-0.17578 c -0.64453,-0.17969 -0.76172,-0.29687 -0.76172,-0.47266 v -0.46875 c 0,-0.17578 0.11719,-0.29296 0.46875,-0.46875 1.70313,-0.76562 4.75781,-2.28906 6.22656,-3.23046 0.41016,-0.29688 0.87891,-0.53125 1.23047,-0.53125 0.41016,0 0.52735,0.29687 0.46875,1.0039 -0.0586,0.46875 -0.0547,7.16016 -0.0547,12.38672 v 6.81641 c 1.8789,-1.82422 5.22265,-2.9375 8.10156,-2.9375 5.16797,-0.004 10.75,4.16797 10.75,12.5625 0,6.87109 -5.51953,13.33203 -12.21875,13.33203 -3.28516,0 -5.57813,-0.70313 -6.92578,-1.52735 l -2.35157,1.29688 c -0.23046,0.17578 -0.41015,0.23437 -0.76562,0.17578 l -0.70313,-0.17578 c -0.23046,-0.0586 -0.29687,-0.17969 -0.23046,-0.47266 0.11718,-0.82422 0.11718,-5.69531 0.11718,-9.98047 z m 4.23047,19.02344 c 0,4.8789 0.17968,6.64062 0.88281,8.51953 0.58203,1.40625 3.05469,2.93359 5.57422,2.93359 3.52343,0 7.87109,-2.40625 7.87109,-10.10156 0,-5.69531 -2.99609,-11.09766 -8.74609,-11.09766 -2.17969,0 -4.29297,0.76563 -5.58203,2.11719 v 7.62891"
     id="path20" />
  <path
     fill-rule="nonzero"
     fill="#fbbf15"
     fill-opacity="1"
     d="m 40.367188,30.06641 c 0,-2.01954 -0.472657,-2.96875 -2.019532,-2.96875 h -2.738281 c -0.355469,0 -0.472656,-0.125 -0.472656,-0.53907 V 25.1875 c 0,-0.35156 0.117187,-0.46875 0.589843,-0.46875 0.597657,0 3.449219,0.17578 9.15625,0.17578 4.992188,0 7.847657,-0.17578 8.5625,-0.17578 0.355469,0 0.472657,0.11719 0.472657,0.41016 v 1.48828 c 0,0.35547 -0.117188,0.48047 -0.472657,0.48047 h -2.496093 c -1.785157,0 -2.855469,1.0625 -2.917969,2.3125 -0.05469,0.71484 -0.175781,4.28125 -0.175781,7.73046 v 7.3711 c 0,2.97265 0.05859,7.19531 0.175781,9.09375 0.183594,2.73437 0.65625,5.46875 2.082031,7.36719 2.023438,2.73437 5.230469,3.6875 8.085938,3.6875 2.734375,0 6.066406,-1.06641 7.964843,-2.85157 2.257813,-2.25781 3.449219,-5.70703 3.449219,-10.04687 V 41.05859 c 0,-4.75 -0.472656,-9.98047 -0.652343,-11.35156 -0.179688,-1.54687 -1.132813,-2.60937 -2.441407,-2.60937 h -2.136719 c -0.355468,0 -0.476562,-0.1836 -0.476562,-0.42188 V 25.1875 c 0,-0.35156 0.121094,-0.46875 0.476562,-0.46875 0.59375,0 3.328126,0.17578 7.253907,0.17578 3.683593,0 5.582031,-0.17578 6.058593,-0.17578 0.535157,0 0.597657,0.17578 0.597657,0.46875 v 1.37109 c 0,0.35547 -0.0625,0.53907 -0.359375,0.53907 h -2.136719 c -2.140625,0 -2.382813,1.66015 -2.5,2.3125 -0.117187,0.71484 -0.117187,9.03906 -0.117187,9.80859 0,0.83203 -0.117188,11.17578 -0.355469,13.55469 -0.355469,4.875 -1.785157,8.5625 -4.996094,11.41015 -2.496094,2.26172 -6.296875,3.6875 -10.816406,3.6875 -2.855469,0 -6.300781,-0.47265 -8.558594,-1.42578 -3.449219,-1.42578 -5.824219,-4.16406 -7.019531,-7.96875 -0.832032,-2.61328 -1.066406,-6.53515 -1.066406,-14.32422 V 30.06641"
     id="path22" />
  <path
     fill-rule="nonzero"
     fill="#fbbf15"
     fill-opacity="1"
     d="m 79.960938,53.72266 c 0.234374,0 0.351562,0.12109 0.351562,0.47656 0.121094,1.90234 0.597656,4.16015 2.261719,6.77734 1.78125,2.85547 4.875,4.27735 7.847656,4.27735 3.210937,0 7.730469,-2.01954 7.730469,-6.95704 0,-5.46484 -2.5,-7.25 -8.800782,-9.625 -1.902343,-0.71484 -5.824218,-2.3789 -8.683593,-4.99218 -2.015625,-1.90235 -2.964844,-4.875 -2.964844,-8.50391 0,-3.32812 1.304687,-6.0625 4.15625,-8.32031 C 84.238281,24.83594 86.851562,24 90.300781,24 c 3.921875,0 6.300781,0.95312 7.488281,1.42969 0.597657,0.23828 0.949219,0.12109 1.25,-0.17969 L 99.8125,24.47656 c 0.23828,-0.23828 0.47656,-0.35547 0.83203,-0.35547 0.35938,0 0.47656,0.35547 0.47656,0.95313 0,0.94922 0.94922,9.27344 0.94922,9.86328 0,0.23828 -0.11718,0.35937 -0.35547,0.42187 l -0.95312,0.29297 c -0.23438,0.0586 -0.47266,0 -0.58984,-0.35547 C 99.578125,33.63281 98.625,31.25781 96.480469,28.99609 94.9375,27.33203 93.035156,26.5 90.300781,26.5 c -4.753906,0 -6.65625,3.80469 -6.65625,6.00391 0,2.02343 0.238281,3.80468 1.664063,5.34765 1.542968,1.54688 4.875,2.97266 7.25,3.6875 3.449218,1.06641 6.304687,2.25781 8.562496,4.63672 1.90235,2.01953 2.97266,4.51563 2.97266,8.49609 0,7.25391 -4.753906,13.19922 -12.605469,13.19922 -4.875,0 -7.722656,-1.07031 -10.101562,-2.85547 -0.71875,-0.47656 -1.074219,-0.71093 -1.425781,-0.71093 -0.359376,0 -0.597657,0.47656 -0.953126,1.07031 -0.355468,0.59375 -0.597656,0.71484 -1.070312,0.71484 -0.472656,0 -0.714844,-0.36328 -0.714844,-0.95312 0.121094,-0.71485 0.953125,-10.34375 1.066406,-11.05469 0.05859,-0.35937 0.121094,-0.48047 0.363282,-0.48047 l 1.308594,0.1211"
     id="path24" />
  <path
     fill-rule="nonzero"
     fill="#fbbf15"
     fill-opacity="1"
     d="m 144.75391,57.28906 c 0.17578,0.17969 0.23437,0.35938 0.11718,0.59375 -3.5664,5.11328 -9.27343,9.98828 -17.71484,9.98828 -7.60547,0 -11.88672,-2.26172 -15.57031,-5.58984 -4.40235,-3.92578 -6.42578,-10.81641 -6.42578,-16.04688 0,-5.82421 1.90234,-11.41406 6.0664,-15.92968 3.21094,-3.44922 8.32422,-6.30078 15.45313,-6.30078 5.46875,0 9.87109,1.66406 12.00781,2.85156 0.83594,0.47656 1.07422,0.47656 1.19141,0 l 0.47265,-1.54297 c 0.1211,-0.35938 0.23828,-0.35938 0.95313,-0.35938 0.71484,0 0.83203,0.11719 0.83203,0.95313 0,1.06641 1.1875,10.57812 1.42578,12.36328 0.0547,0.35547 0,0.53516 -0.23828,0.59375 l -1.125,0.35547 c -0.30078,0.12109 -0.47656,-0.11719 -0.65625,-0.59375 -0.71485,-2.14063 -2.14453,-5.10938 -4.63672,-7.72656 C 134.28906,28.40234 131.19531,26.5 126.5625,26.5 c -9.50781,0 -13.43359,8.55859 -13.43359,17.12109 0,3.6836 1.07031,10.69922 5.47265,15.45313 3.91797,4.16015 7.36719,4.63672 10.22266,4.63672 6.53515,0 11.70703,-3.26953 14.20703,-6.89453 0.29297,-0.41797 0.53125,-0.59766 0.71094,-0.41797 l 1.01172,0.89062"
     id="path26" />
  <path
     fill-rule="nonzero"
     fill="#ffffff"
     fill-opacity="1"
     d="m 156.30469,96.07031 c -0.23047,-0.17187 -0.34375,-0.23047 -0.4375,-0.23047 -0.11328,0 -0.19141,0.13282 -0.30469,0.32422 -0.11328,0.20703 -0.20703,0.22656 -0.33984,0.22656 -0.11719,0 -0.21094,-0.0937 -0.17188,-0.30468 0.0742,-0.47266 0.26563,-2.88672 0.32031,-3.4375 0.0195,-0.11328 0.0586,-0.11328 0.13282,-0.11328 l 0.28515,0.0195 c 0.0781,0 0.11719,0.0391 0.11719,0.15234 0.0156,0.60547 0.0547,1.23438 0.68359,2.20313 0.57032,0.89062 1.61328,1.40625 2.66016,1.40625 1.13672,0 2.58203,-0.70313 2.58203,-2.41407 0,-1.95703 -1.40625,-2.67968 -2.92578,-3.21093 -0.58984,-0.20704 -1.95703,-0.6836 -2.77344,-1.53907 -0.6289,-0.625 -0.94922,-1.51953 -0.94922,-2.77343 0,-0.94922 0.58985,-1.87891 1.17578,-2.42969 0.6836,-0.64844 1.63672,-0.91406 2.66016,-0.91406 1.08203,0 1.91797,0.32421 2.24219,0.47656 0.17187,0.0937 0.26562,0.0742 0.35937,-0.0195 l 0.25,-0.22657 c 0.0937,-0.0781 0.15235,-0.11328 0.2461,-0.11328 0.0937,0 0.15234,0.14844 0.15234,0.32032 0,0.66406 0.24609,2.60546 0.26563,3.01953 0,0.0976 -0.0195,0.13672 -0.0937,0.15234 l -0.23047,0.0586 c -0.0547,0.0195 -0.0937,0 -0.11328,-0.0586 -0.15235,-0.55078 -0.39844,-1.28906 -1.17579,-2.10937 -0.51562,-0.55079 -1.17968,-0.81641 -2.07421,-0.81641 -1.6875,0 -2.29688,1.25391 -2.29688,2.22266 0,0.53515 0.11328,1.16015 0.58984,1.65234 0.55079,0.55469 1.61329,0.97266 2.16407,1.14062 1.3125,0.41797 2.375,0.74219 3.05859,1.57813 0.49609,0.58984 0.83594,1.32812 0.83594,2.58203 0,2.24219 -1.36719,4.16016 -3.875,4.16016 -1.32813,0 -2.26172,-0.39844 -3.01953,-0.98438"
     id="path28" />
  <path
     fill-rule="nonzero"
     fill="#ffffff"
     fill-opacity="1"
     d="m 165.74609,92.17578 c 0,1.02344 0.45703,2.18359 0.96875,2.88672 0.62891,0.81641 1.42578,0.96875 2.07422,0.96875 0.94922,0 1.44141,-0.21094 2.08594,-0.81641 0.0391,-0.0391 0.0977,-0.0586 0.15234,0 l 0.19141,0.1875 c 0.0742,0.0781 0.0937,0.13282 0,0.25 -0.55078,0.625 -1.76563,1.34766 -3.05859,1.34766 -1.00782,0 -2.07032,-0.22656 -2.94532,-1.33203 -0.70312,-0.92969 -0.85547,-1.72656 -0.85547,-2.58203 0,-2.22266 1.5586,-4.46485 4.06641,-4.46485 1.97656,0 2.58594,1.14063 2.58594,1.53907 -0.0195,0.4375 -0.30469,0.66406 -0.70313,0.66406 -0.4375,0 -0.76172,-0.2461 -1.04687,-0.75781 -0.41797,-0.78125 -0.81641,-0.83594 -1.27344,-0.83594 -1.08203,0 -2.24219,0.98828 -2.24219,2.94531"
     id="path30" />
  <path
     fill-rule="nonzero"
     fill="#ffffff"
     fill-opacity="1"
     d="m 173.23828,86.41797 c 0,-1.16016 -0.22656,-1.36719 -0.91406,-1.59375 l -0.32031,-0.11719 c -0.11329,-0.0352 -0.13282,-0.0547 -0.13282,-0.11328 v -0.17188 c 0,-0.0742 0.0547,-0.0937 0.22657,-0.1875 l 1.97656,-1.04687 c 0.15234,-0.0742 0.28515,-0.15234 0.4375,-0.15234 0.11328,0 0.1875,0.15234 0.15234,0.47656 -0.0391,0.32422 -0.0586,4.17969 -0.0586,5.1289 v 1.21485 h 0.0937 c 0.66797,-0.79688 1.76953,-1.23438 2.60547,-1.23438 0.79687,0 1.34765,0.2461 1.8789,0.76172 0.85547,0.79688 0.81641,1.76563 0.81641,2.79297 v 1.08203 c 0,1.0625 0.0391,2.24219 0.0391,2.60156 0,0.22657 0.30469,0.28516 0.70313,0.28516 h 0.32031 c 0.15625,0 0.21094,0.0391 0.21094,0.17188 v 0.28515 c 0,0.15235 -0.0391,0.22656 -0.15235,0.22656 -0.13281,0 -0.73828,-0.0547 -1.82422,-0.0547 -0.92968,0 -1.61328,0.0547 -1.78515,0.0547 -0.13281,0 -0.17188,-0.0547 -0.17188,-0.20703 v -0.32422 c 0,-0.0937 0.0195,-0.15234 0.13282,-0.15234 h 0.4375 c 0.32421,0 0.70312,-0.0391 0.72265,-0.35937 0.0195,-0.26563 0,-1.27344 0,-1.88282 v -1.53906 c 0,-1.0625 -0.0742,-1.82422 -0.625,-2.33594 -0.38281,-0.35937 -0.78125,-0.53125 -1.2539,-0.53125 -0.55079,0 -1.23438,0.1875 -1.76954,0.79688 -0.16796,0.21094 -0.3789,0.58984 -0.3789,0.92969 v 4.14453 c 0,0.60547 0.0586,0.77734 0.41797,0.77734 h 0.57031 c 0.13281,0 0.20703,0.0391 0.20703,0.15234 v 0.32422 c 0,0.13282 -0.0352,0.20703 -0.14844,0.20703 -0.15234,0 -0.93359,-0.0547 -1.80468,-0.0547 -0.95313,0 -1.67188,0.0547 -1.84375,0.0547 -0.0781,0 -0.13282,-0.0547 -0.13282,-0.1875 v -0.34375 c 0,-0.13281 0.0742,-0.15234 0.28516,-0.15234 h 0.39844 c 0.30468,0 0.58984,-0.0742 0.625,-0.30469 0.0586,-0.35937 0.0586,-2.44922 0.0586,-3.68359 v -5.73828"
     id="path32" />
  <path
     fill-rule="nonzero"
     fill="#ffffff"
     fill-opacity="1"
     d="m 188.81641,92.62891 c 0,-2.10547 -1.53907,-3.4375 -2.50391,-3.4375 -0.51563,0 -1.00781,0.11328 -1.46484,0.60937 -0.74219,0.75781 -1.00782,1.53906 -1.00782,2.98047 0,1.0625 0.11328,1.78516 0.72266,2.66016 0.43359,0.6289 0.98828,0.98828 1.87891,0.98828 1.44531,0 2.375,-1.76563 2.375,-3.80078 z m -5.48829,3.05859 c -0.875,-1.04297 -1.04687,-1.74609 -1.04687,-3.09375 0,-0.97266 0.51562,-2.1875 1.63281,-3.05859 0.98828,-0.76172 1.92188,-0.91407 2.54688,-0.91407 1.04687,0 2.08984,0.53125 2.66015,1.10157 0.85547,0.875 1.29297,1.86328 1.29297,3.09765 0,2.07031 -1.86328,4.17969 -4.19922,4.17969 -0.91015,0 -2.08984,-0.35938 -2.88672,-1.3125"
     id="path34" />
  <path
     fill-rule="nonzero"
     fill="#ffffff"
     fill-opacity="1"
     d="m 198.27734,92.62891 c 0,-2.10547 -1.53906,-3.4375 -2.50781,-3.4375 -0.51172,0 -1.00391,0.11328 -1.46094,0.60937 -0.74218,0.75781 -1.00781,1.53906 -1.00781,2.98047 0,1.0625 0.11328,1.78516 0.72266,2.66016 0.4375,0.6289 0.98828,0.98828 1.8789,0.98828 1.44532,0 2.375,-1.76563 2.375,-3.80078 z m -5.48828,3.05859 c -0.875,-1.04297 -1.04687,-1.74609 -1.04687,-3.09375 0,-0.97266 0.51562,-2.1875 1.63672,-3.05859 0.98437,-0.76172 1.91796,-0.91407 2.54687,-0.91407 1.04297,0 2.08984,0.53125 2.65625,1.10157 0.85547,0.875 1.29297,1.86328 1.29297,3.09765 0,2.07031 -1.85938,4.17969 -4.19922,4.17969 -0.91016,0 -2.08984,-0.35938 -2.88672,-1.3125"
     id="path36" />
  <path
     fill-rule="nonzero"
     fill="#ffffff"
     fill-opacity="1"
     d="m 203.73047,91.10937 c 0,0.98829 0,3.85938 0.0234,4.44532 0.0156,0.32422 0.0937,0.58984 0.49218,0.58984 h 0.85547 c 0.16797,0 0.20703,0.0586 0.20703,0.17188 v 0.32421 c 0,0.11329 -0.0391,0.1875 -0.11328,0.1875 -0.13281,0 -0.96875,-0.0547 -2.14453,-0.0547 -1.21875,0 -1.98047,0.0547 -2.14844,0.0547 -0.0937,0 -0.13281,-0.0742 -0.13281,-0.1875 v -0.32421 c 0,-0.13282 0.0391,-0.17188 0.24609,-0.17188 h 0.91407 c 0.20703,0 0.39453,-0.13281 0.41797,-0.47656 0.0156,-0.58594 0.0156,-3.85547 0.0156,-4.95703 v -1.19532 c 0,-1.35156 -0.0156,-3.07812 -0.0547,-3.57421 -0.0391,-0.64454 -0.34375,-0.94922 -0.95312,-1.13672 l -0.375,-0.13282 c -0.0977,-0.0391 -0.11719,-0.0586 -0.11719,-0.0977 v -0.15235 c 0,-0.0547 0.0586,-0.0937 0.17188,-0.13281 0.66406,-0.30469 1.51953,-0.64453 2.22265,-1.10156 0.17188,-0.11328 0.28516,-0.15234 0.39844,-0.15234 0.13281,0 0.17187,0.0976 0.15234,0.34375 -0.0195,1.04296 -0.0781,4.99609 -0.0781,6.03906 v 1.6914"
     id="path38" />
  <path
     fill-rule="nonzero"
     fill="#ffffff"
     fill-opacity="1"
     d="m 216.67187,92.62891 c 0,-2.10547 -1.53906,-3.4375 -2.50781,-3.4375 -0.51562,0 -1.00781,0.11328 -1.46484,0.60937 -0.73828,0.75781 -1.00781,1.53906 -1.00781,2.98047 0,1.0625 0.11718,1.78516 0.72265,2.66016 0.4375,0.6289 0.98828,0.98828 1.88281,0.98828 1.44141,0 2.375,-1.76563 2.375,-3.80078 z m -5.48828,3.05859 c -0.875,-1.04297 -1.04687,-1.74609 -1.04687,-3.09375 0,-0.97266 0.51172,-2.1875 1.63281,-3.05859 0.98828,-0.76172 1.91797,-0.91407 2.54297,-0.91407 1.04687,0 2.08984,0.53125 2.66406,1.10157 0.85156,0.875 1.29297,1.86328 1.29297,3.09765 0,2.07031 -1.86719,4.17969 -4.20312,4.17969 -0.91016,0 -2.08594,-0.35938 -2.88282,-1.3125"
     id="path40" />
  <path
     fill-rule="nonzero"
     fill="#ffffff"
     fill-opacity="1"
     d="m 220.96484,89.76172 h -1.3125 c -0.0937,0 -0.13281,-0.0391 -0.0937,-0.21094 l 0.0781,-0.57031 c 0.0156,-0.11328 0.0742,-0.13281 0.22656,-0.13281 h 1.10156 v -0.35938 c 0,-1.87891 0.53125,-3.11719 1.27344,-3.95312 1.00391,-1.10157 2.05078,-1.5 3.11719,-1.5 0.89062,0 1.72656,0.34375 1.72656,1.0664 0,0.45313 -0.49219,0.81641 -0.79687,0.81641 -0.19141,0 -0.38282,-0.0391 -0.53125,-0.11328 -0.17188,-0.0977 -0.38282,-0.34375 -0.45704,-0.4375 -0.24609,-0.30469 -0.51562,-0.4375 -0.875,-0.4375 -0.49218,0 -1.00781,0.13281 -1.42578,0.66406 -0.69922,0.89453 -0.66406,2.54687 -0.66406,3.875 v 0.37891 h 2.30078 c 0.13281,0 0.14844,0.11718 0.13281,0.1914 l -0.0937,0.62891 c -0.0234,0.0742 -0.0977,0.0937 -0.25,0.0937 h -2.08984 v 1.6914 c 0,2.24219 0,3.98829 0.0195,4.19922 0.0391,0.32032 0.0937,0.49219 0.4961,0.49219 h 1.08203 c 0.17187,0 0.20703,0.0391 0.20703,0.15234 v 0.30469 c 0,0.15235 -0.0352,0.22656 -0.13281,0.22656 -0.11329,0 -0.81641,-0.0547 -2.27735,-0.0547 -1.04687,0 -2.01562,0.0547 -2.16797,0.0547 -0.11328,0 -0.15234,-0.0391 -0.15234,-0.13281 v -0.41797 c 0,-0.0937 0.0391,-0.13281 0.19141,-0.13281 h 0.91406 c 0.35547,0 0.43359,-0.22656 0.45312,-0.66406 v -5.71875"
     id="path42" />
  <path
     fill-rule="nonzero"
     fill="#ffffff"
     fill-opacity="1"
     d="m 234.17187,89.49609 c 0.14844,0 2.1836,-0.0781 2.41016,-0.11328 0.55078,-0.0976 0.70313,-0.24609 0.87109,-0.83594 0.0625,-0.1914 0.13672,-0.57031 0.15235,-0.93359 0,-0.0937 0.0586,-0.13281 0.13281,-0.13281 l 0.48047,0.0195 c 0.0937,0 0.13281,0.0781 0.10937,0.15234 -0.0547,0.32422 -0.0547,1.88282 -0.0547,2.16797 0,0.66406 0.0781,1.57422 0.11328,1.97266 0,0.0977 -0.0352,0.13281 -0.11328,0.15234 l -0.41797,0.0586 c -0.0937,0.0195 -0.13281,-0.0391 -0.15235,-0.17188 -0.0391,-0.24609 -0.15234,-0.68359 -0.21093,-0.89062 -0.10938,-0.40235 -0.32032,-0.6875 -0.8125,-0.74219 -0.89453,-0.0977 -2.20703,-0.0977 -2.50782,-0.0977 v 1.17969 c 0,1.02734 0.0352,2.86719 0.0352,3.25 0.0195,0.98828 0.49219,1.36719 1.08203,1.48047 0.38281,0.0742 0.9336,0.13281 1.40625,0.13281 0.32422,0 1.27344,-0.0195 1.67188,-0.0586 0.32422,-0.0352 1.16015,-0.2461 1.65234,-0.66407 0.22656,-0.1875 1.29297,-1.55859 1.55859,-1.99609 0.0586,-0.0937 0.11329,-0.16797 0.23047,-0.11328 l 0.30078,0.17187 c 0.0937,0.0586 0.0937,0.11329 0.0391,0.26563 l -1.00782,2.79297 c -0.0547,0.17187 -0.1914,0.28515 -0.41796,0.28515 -0.0937,0 -0.51172,-0.0195 -1.65235,-0.0391 -1.13672,0 -2.98047,-0.0156 -5.94531,-0.0156 -0.70313,0 -1.23438,0.0156 -1.61328,0.0156 -0.40235,0.0195 -0.64844,0.0391 -0.82031,0.0391 -0.11329,0 -0.17188,-0.0391 -0.17188,-0.13281 v -0.51172 c 0,-0.0781 0.0586,-0.0976 0.19531,-0.0976 h 0.75782 c 0.875,0 0.94921,-0.13282 0.94921,-0.83203 v -6.36719 c 0,-1.57422 -0.0391,-3.94922 -0.0586,-4.14063 -0.0742,-0.60937 -0.26172,-0.74218 -0.96875,-0.74218 h -0.67969 c -0.0977,0 -0.15234,-0.0195 -0.15234,-0.13282 v -0.51172 c 0,-0.0586 0.0352,-0.0937 0.12891,-0.0937 0.41796,0 1.08203,0.0547 2.33593,0.0547 h 0.83594 c 1.88281,0 3.76563,-0.0195 5.64453,-0.0195 0.30469,0 0.66406,-0.0352 0.76172,-0.0352 0.0937,0 0.12891,0.0352 0.15234,0.0937 0.0742,0.26563 0.91016,2.86719 0.96875,3.0586 0.0156,0.0742 0.0156,0.13281 -0.0586,0.17187 l -0.28516,0.15235 c -0.0586,0.0351 -0.13281,-0.0195 -0.15234,-0.0586 -0.0391,-0.0742 -1.44531,-1.8789 -1.90234,-2.16406 -0.39453,-0.26562 -0.92969,-0.49609 -1.44141,-0.51562 l -3.37891,-0.0742 v 5.5664"
     id="path44" />
  <path
     fill-rule="nonzero"
     fill="#ffffff"
     fill-opacity="1"
     d="m 250.26953,95.74609 c 0,0.30469 0.16797,0.39844 0.41797,0.39844 h 0.60547 c 0.17187,0 0.21094,0.0586 0.21094,0.17188 v 0.30468 c 0,0.13282 -0.0391,0.20703 -0.15235,0.20703 -0.13281,0 -0.72265,-0.0547 -1.80469,-0.0547 -0.97265,0 -1.57812,0.0547 -1.71093,0.0547 -0.11328,0 -0.15235,-0.0547 -0.15235,-0.20703 v -0.30468 c 0,-0.13282 0.0547,-0.17188 0.25,-0.17188 h 0.54688 c 0.21094,0 0.36328,-0.0937 0.3789,-0.4375 0.0234,-0.49219 0.0391,-1.10156 0.0391,-1.59375 v -2.50781 c 0,-0.76172 0,-1.3125 -0.55078,-1.71094 -0.45313,-0.34375 -0.91016,-0.34375 -1.38672,-0.34375 -0.30469,0 -0.96875,0.13281 -1.53516,0.74219 -0.38281,0.41797 -0.44141,0.92969 -0.44141,1.29297 v 3.93359 c 0,0.51172 0.0586,0.625 0.45704,0.625 h 0.47265 c 0.15235,0 0.19141,0.0586 0.19141,0.19141 v 0.32031 c 0,0.11719 -0.0391,0.17187 -0.12891,0.17187 -0.13281,0 -0.64844,-0.0547 -1.65625,-0.0547 -0.96875,0 -1.57812,0.0547 -1.6875,0.0547 -0.0977,0 -0.13672,-0.0547 -0.13672,-0.17187 v -0.33984 c 0,-0.11329 0.0391,-0.17188 0.19141,-0.17188 h 0.55078 c 0.24609,0 0.37891,-0.0586 0.37891,-0.37891 v -4.44531 c 0,-0.57031 -0.30469,-0.89453 -0.77735,-1.12109 l -0.15234,-0.0781 c -0.13281,-0.0547 -0.15234,-0.11328 -0.15234,-0.16797 v -0.0977 c 0,-0.0937 0.0742,-0.15235 0.17187,-0.1875 l 1.63281,-0.91406 c 0.15235,-0.0742 0.26563,-0.13282 0.34375,-0.13282 0.0937,0 0.12891,0.0781 0.15235,0.22657 l 0.13281,1.16015 h 0.0391 c 0.55078,-0.68359 1.64844,-1.38672 2.59766,-1.38672 0.57422,0 1.16015,0.11328 1.61719,0.41797 0.57031,0.37891 1.04687,1.33203 1.04687,1.80469 v 4.90234"
     id="path46" />
  <path
     fill-rule="nonzero"
     fill="#ffffff"
     fill-opacity="1"
     d="m 257.60156,91.28125 c 0,-0.83594 -0.16797,-1.32813 -0.51172,-1.71094 -0.24609,-0.24609 -0.6289,-0.41797 -0.91015,-0.41797 -0.44141,0 -0.89844,0.0781 -1.35157,0.53125 -0.60546,0.64844 -0.68359,1.52344 -0.68359,2.24219 0,0.64844 0.21094,1.23438 0.60938,1.65625 0.33984,0.32031 0.68359,0.47266 1.14062,0.47266 1.28906,0 1.70703,-1.57813 1.70703,-2.77344 z m 1.76563,8.09375 c 0,-1.12109 -0.85157,-1.97656 -2.75391,-1.84375 l -1.82422,0.13281 c -0.58984,0.15235 -1.51953,0.79688 -1.51953,1.82422 0,0.47656 0.36328,1.04297 0.74219,1.30859 0.6289,0.4375 1.30859,0.53516 2.66015,0.53516 0.69922,0 2.79297,-0.49609 2.69532,-1.95703 z m -6.26563,1.95703 c -0.6875,-0.41797 -0.96875,-0.91406 -0.96875,-1.53906 0,-1.06641 1.08203,-1.88281 1.99219,-2.28125 v -0.0742 c -0.79688,-0.17188 -1.27344,-0.76172 -1.27344,-1.33203 0,-0.91016 1.04297,-1.5586 1.71094,-1.80469 v -0.0352 c -0.74219,-0.32421 -1.76563,-1.19921 -1.76563,-2.89062 0,-1.23438 1.09766,-2.75391 3.2461,-2.75391 1.44531,0 2.20312,0.875 2.39453,1.10157 0.51172,-0.35938 1.16016,-0.74219 1.78516,-0.74219 0.6289,0 0.92968,0.42187 0.89062,0.80078 0,0.35937 -0.30078,0.70312 -0.73828,0.70312 -0.32031,0 -0.51172,-0.15234 -0.66406,-0.28515 -0.11328,-0.0781 -0.2461,-0.17188 -0.39844,-0.17188 -0.13281,0 -0.36328,0 -0.60938,0.11328 0.15235,0.38282 0.28516,0.80079 0.28516,1.44532 0,0.74218 -0.21094,1.46093 -0.70312,2.05078 -0.4961,0.55078 -1.57422,0.94922 -2.20313,0.94922 -0.41797,0 -0.68359,-0.0195 -0.96875,-0.0937 -0.38281,0.15234 -1.00781,0.53125 -1.00781,1.0625 0,0.78125 0.95312,0.72265 2.22265,0.64843 1.5586,-0.0781 2.50782,0.0937 3.26954,0.6836 0.8164,0.60547 0.91015,1.36719 0.92968,1.82422 0,0.89062 -0.32422,1.63281 -1.27343,2.33593 -0.49219,0.35938 -1.63282,0.89063 -3.2461,0.89063 -0.91406,0 -1.99609,-0.0937 -2.90625,-0.60547"
     id="path48" />
  <path
     fill-rule="nonzero"
     fill="#ffffff"
     fill-opacity="1"
     d="m 262.16016,85.44922 c 0,-0.47656 0.40234,-0.98828 1.16015,-0.98828 0.66406,0 0.98828,0.51172 0.98828,0.92968 0,0.4961 -0.33984,1.04688 -1.10156,1.04688 -0.41797,0 -1.04687,-0.37891 -1.04687,-0.98828 z m 0.85937,5.79297 c 0,-0.64453 -0.11719,-0.98828 -1.06641,-1.14063 -0.13281,-0.0156 -0.17187,-0.0547 -0.17187,-0.13281 v -0.16797 c 0,-0.0586 0.0391,-0.0977 0.13281,-0.13281 0.60938,-0.23047 1.32813,-0.53125 2.05469,-0.9336 0.14844,-0.0742 0.24609,-0.11328 0.35937,-0.11328 0.0977,0 0.11329,0.0977 0.0977,0.22657 -0.0391,0.32421 -0.0391,1.52343 -0.0391,3.09765 v 2.07031 c 0,0.74219 0,1.42579 0.0156,1.63672 0.0391,0.35938 0.0937,0.49219 0.30469,0.49219 h 0.875 c 0.15234,0 0.1875,0.0586 0.1875,0.17188 v 0.32421 c 0,0.13282 -0.0352,0.1875 -0.16797,0.1875 -0.15234,0 -1.02734,-0.0547 -1.82422,-0.0547 -1.10156,0 -1.84375,0.0547 -2.05078,0.0547 -0.0937,0 -0.15234,-0.0391 -0.15234,-0.15234 v -0.37891 c 0,-0.11328 0.0586,-0.15234 0.1914,-0.15234 h 0.92579 c 0.21093,0 0.28906,-0.0742 0.30468,-0.37891 0.0234,-0.57031 0.0234,-1.16015 0.0234,-1.73046 v -2.79297"
     id="path50" />
  <path
     fill-rule="nonzero"
     fill="#ffffff"
     fill-opacity="1"
     d="m 274.66016,95.74609 c 0,0.30469 0.17578,0.39844 0.41796,0.39844 h 0.60938 c 0.17187,0 0.21094,0.0586 0.21094,0.17188 v 0.30468 c 0,0.13282 -0.0391,0.20703 -0.15235,0.20703 -0.13281,0 -0.72265,-0.0547 -1.80468,-0.0547 -0.96875,0 -1.57813,0.0547 -1.71094,0.0547 -0.11328,0 -0.15235,-0.0547 -0.15235,-0.20703 v -0.30468 c 0,-0.13282 0.0586,-0.17188 0.2461,-0.17188 h 0.55469 c 0.20703,0 0.35937,-0.0937 0.3789,-0.4375 0.0156,-0.49219 0.0391,-1.10156 0.0391,-1.59375 v -2.50781 c 0,-0.76172 0,-1.3125 -0.55468,-1.71094 -0.45313,-0.34375 -0.91016,-0.34375 -1.38672,-0.34375 -0.30078,0 -0.96485,0.13281 -1.53906,0.74219 -0.37891,0.41797 -0.4336,0.92969 -0.4336,1.29297 v 3.93359 c 0,0.51172 0.0547,0.625 0.45703,0.625 h 0.47266 c 0.15234,0 0.19141,0.0586 0.19141,0.19141 v 0.32031 c 0,0.11719 -0.0391,0.17187 -0.13672,0.17187 -0.13282,0 -0.64453,-0.0547 -1.64844,-0.0547 -0.97266,0 -1.57813,0.0547 -1.69531,0.0547 -0.0899,0 -0.12891,-0.0547 -0.12891,-0.17187 v -0.33984 c 0,-0.11329 0.0391,-0.17188 0.1875,-0.17188 h 0.55469 c 0.24609,0 0.3789,-0.0586 0.3789,-0.37891 v -4.44531 c 0,-0.57031 -0.30468,-0.89453 -0.78125,-1.12109 l -0.15234,-0.0781 c -0.13281,-0.0547 -0.14844,-0.11328 -0.14844,-0.16797 v -0.0977 c 0,-0.0937 0.0742,-0.15235 0.16797,-0.1875 l 1.63281,-0.91406 c 0.15625,-0.0742 0.26954,-0.13282 0.34375,-0.13282 0.0937,0 0.13282,0.0781 0.15235,0.22657 l 0.13281,1.16015 h 0.0352 c 0.55078,-0.68359 1.65625,-1.38672 2.60547,-1.38672 0.5664,0 1.15625,0.11328 1.61328,0.41797 0.57031,0.37891 1.04297,1.33203 1.04297,1.80469 v 4.90234"
     id="path52" />
  <path
     fill-rule="nonzero"
     fill="#ffffff"
     fill-opacity="1"
     d="m 281.46484,91.14844 c 0.35938,0 0.51563,-0.0937 0.51563,-0.26563 0,-0.4375 -0.23047,-1.6914 -1.46485,-1.6914 -0.83593,0 -1.63281,0.55078 -1.99609,1.95703 z m -3.01953,0.57031 c -0.0391,0.17187 -0.0547,0.47656 -0.0547,0.91016 0,1.86328 1.17579,3.26953 2.69532,3.26953 1.15625,0 1.97656,-0.66407 2.30078,-1.29297 0.0351,-0.0742 0.10937,-0.11328 0.16797,-0.0937 l 0.25,0.13281 c 0.0547,0.0195 0.0898,0.0742 0,0.28516 -0.34375,0.75781 -1.33203,2.07031 -3.02344,2.07031 -1.08203,0 -2.27734,-0.32422 -2.98047,-1.34766 -0.66406,-0.97265 -0.83594,-1.67187 -0.83594,-3.0039 0,-0.74219 0.1875,-2.01172 1.19532,-3.01953 0.8164,-0.83594 1.76562,-1.00782 2.71875,-1.00782 2.18359,0 2.78906,2.05078 2.78906,2.79297 0,0.26563 -0.22656,0.30469 -0.53125,0.30469 h -4.69141"
     id="path54" />
  <path
     fill-rule="nonzero"
     fill="#ffffff"
     fill-opacity="1"
     d="m 289.55859,91.14844 c 0.36328,0 0.51172,-0.0937 0.51172,-0.26563 0,-0.4375 -0.22656,-1.6914 -1.46094,-1.6914 -0.83593,0 -1.63281,0.55078 -1.99609,1.95703 z m -3.01953,0.57031 c -0.0391,0.17187 -0.0586,0.47656 -0.0586,0.91016 0,1.86328 1.17969,3.26953 2.69922,3.26953 1.16015,0 1.97265,-0.66407 2.30078,-1.29297 0.0351,-0.0742 0.11328,-0.11328 0.16797,-0.0937 l 0.24609,0.13281 c 0.0586,0.0195 0.0937,0.0742 0,0.28516 C 291.55469,95.6875 290.56641,97 288.875,97 c -1.08203,0 -2.27734,-0.32422 -2.98047,-1.34766 -0.66406,-0.97265 -0.83594,-1.67187 -0.83594,-3.0039 0,-0.74219 0.1875,-2.01172 1.19532,-3.01953 0.8164,-0.83594 1.76562,-1.00782 2.71875,-1.00782 2.17968,0 2.79296,2.05078 2.79296,2.79297 0,0.26563 -0.23046,0.30469 -0.53515,0.30469 h -4.69141"
     id="path56" />
  <path
     fill-rule="nonzero"
     fill="#ffffff"
     fill-opacity="1"
     d="m 294.28906,91.71875 c 0,-0.96875 -0.14844,-1.16016 -0.68359,-1.44531 l -0.35938,-0.1875 c -0.11328,-0.0391 -0.15234,-0.0586 -0.15234,-0.13282 v -0.11718 c 0,-0.0742 0.0391,-0.11328 0.15234,-0.16797 l 1.88282,-0.96875 c 0.10937,-0.0586 0.1875,-0.0781 0.26562,-0.0781 0.11328,0 0.12891,0.11328 0.12891,0.22657 l 0.0976,1.3125 h 0.0742 c 0.57031,-0.875 1.46485,-1.65235 2.28125,-1.65235 0.64453,0 0.96875,0.39844 0.96875,0.83594 0,0.55078 -0.45703,0.92969 -0.80078,0.92969 -0.20703,0 -0.39844,-0.0742 -0.54687,-0.15235 -0.15625,-0.0937 -0.37891,-0.15234 -0.62891,-0.15234 -0.30469,0 -0.79688,0.19141 -1.12109,0.80078 -0.11329,0.20703 -0.19141,0.55078 -0.19141,0.60547 v 3.99219 c 0,0.58593 0.13281,0.77734 0.53516,0.77734 h 0.89453 c 0.10937,0 0.13281,0.0586 0.13281,0.17188 v 0.33984 c 0,0.11719 -0.0234,0.17187 -0.0977,0.17187 -0.11328,0 -0.98828,-0.0547 -2.01562,-0.0547 -1.17578,0 -1.97266,0.0547 -2.08594,0.0547 -0.0781,0 -0.11719,-0.0391 -0.11719,-0.1875 v -0.32421 c 0,-0.13282 0.0391,-0.17188 0.21094,-0.17188 h 0.74219 c 0.28515,0 0.41406,-0.11328 0.41406,-0.35937 0.0195,-0.62891 0.0195,-1.29297 0.0195,-2.28125 v -1.78516"
     id="path58" />
  <path
     fill-rule="nonzero"
     fill="#ffffff"
     fill-opacity="1"
     d="m 300.19922,85.44922 c 0,-0.47656 0.40234,-0.98828 1.16015,-0.98828 0.66407,0 0.98829,0.51172 0.98829,0.92968 0,0.4961 -0.34375,1.04688 -1.10547,1.04688 -0.41797,0 -1.04297,-0.37891 -1.04297,-0.98828 z m 0.85547,5.79297 c 0,-0.64453 -0.11328,-0.98828 -1.06641,-1.14063 -0.13281,-0.0156 -0.16797,-0.0547 -0.16797,-0.13281 v -0.16797 c 0,-0.0586 0.0352,-0.0977 0.13281,-0.13281 0.60938,-0.23047 1.32813,-0.53125 2.05079,-0.9336 0.15234,-0.0742 0.25,-0.11328 0.35937,-0.11328 0.0977,0 0.11719,0.0977 0.0977,0.22657 -0.0391,0.32421 -0.0391,1.52343 -0.0391,3.09765 v 2.07031 c 0,0.74219 0,1.42579 0.0195,1.63672 0.0391,0.35938 0.0937,0.49219 0.30468,0.49219 h 0.8711 c 0.15234,0 0.1914,0.0586 0.1914,0.17188 v 0.32421 c 0,0.13282 -0.0391,0.1875 -0.16797,0.1875 -0.15625,0 -1.02734,-0.0547 -1.82812,-0.0547 -1.09766,0 -1.83984,0.0547 -2.04688,0.0547 -0.0976,0 -0.15625,-0.0391 -0.15625,-0.15234 v -0.37891 c 0,-0.11328 0.0586,-0.15234 0.19141,-0.15234 h 0.92969 c 0.21094,0 0.28906,-0.0742 0.30469,-0.37891 0.0195,-0.57031 0.0195,-1.16015 0.0195,-1.73046 v -2.79297"
     id="path60" />
  <path
     fill-rule="nonzero"
     fill="#ffffff"
     fill-opacity="1"
     d="m 312.69922,95.74609 c 0,0.30469 0.17187,0.39844 0.41797,0.39844 h 0.60937 c 0.17188,0 0.21094,0.0586 0.21094,0.17188 v 0.30468 c 0,0.13282 -0.0391,0.20703 -0.15625,0.20703 -0.13281,0 -0.71875,-0.0547 -1.80078,-0.0547 -0.96875,0 -1.57813,0.0547 -1.71094,0.0547 -0.11719,0 -0.15234,-0.0547 -0.15234,-0.20703 v -0.30468 c 0,-0.13282 0.0586,-0.17188 0.24609,-0.17188 h 0.55078 c 0.20703,0 0.35938,-0.0937 0.38281,-0.4375 0.0156,-0.49219 0.0352,-1.10156 0.0352,-1.59375 v -2.50781 c 0,-0.76172 0,-1.3125 -0.55078,-1.71094 -0.45703,-0.34375 -0.91406,-0.34375 -1.38672,-0.34375 -0.30078,0 -0.96875,0.13281 -1.53906,0.74219 -0.37891,0.41797 -0.4336,0.92969 -0.4336,1.29297 v 3.93359 c 0,0.51172 0.0547,0.625 0.45313,0.625 h 0.47656 c 0.15235,0 0.1875,0.0586 0.1875,0.19141 v 0.32031 c 0,0.11719 -0.0351,0.17187 -0.13281,0.17187 -0.13281,0 -0.64453,-0.0547 -1.65234,-0.0547 -0.96875,0 -1.57422,0.0547 -1.69141,0.0547 -0.0937,0 -0.13281,-0.0547 -0.13281,-0.17187 v -0.33984 c 0,-0.11329 0.0391,-0.17188 0.1914,-0.17188 h 0.55078 c 0.2461,0 0.37891,-0.0586 0.37891,-0.37891 v -4.44531 c 0,-0.57031 -0.30469,-0.89453 -0.77734,-1.12109 l -0.15235,-0.0781 c -0.13281,-0.0547 -0.15234,-0.11328 -0.15234,-0.16797 v -0.0977 c 0,-0.0937 0.0781,-0.15235 0.17187,-0.1875 l 1.63282,-0.91406 c 0.15234,-0.0742 0.26562,-0.13282 0.33984,-0.13282 0.0977,0 0.13281,0.0781 0.15625,0.22657 l 0.12891,1.16015 h 0.0391 c 0.55078,-0.68359 1.65625,-1.38672 2.60156,-1.38672 0.57031,0 1.16016,0.11328 1.61719,0.41797 0.57031,0.37891 1.04297,1.33203 1.04297,1.80469 v 4.90234"
     id="path62" />
  <path
     fill-rule="nonzero"
     fill="#ffffff"
     fill-opacity="1"
     d="m 320.03516,91.28125 c 0,-0.83594 -0.17188,-1.32813 -0.51172,-1.71094 -0.25,-0.24609 -0.62891,-0.41797 -0.91407,-0.41797 -0.43359,0 -0.89062,0.0781 -1.34765,0.53125 -0.60938,0.64844 -0.6836,1.52344 -0.6836,2.24219 0,0.64844 0.20704,1.23438 0.60938,1.65625 0.33984,0.32031 0.67969,0.47266 1.13672,0.47266 1.29297,0 1.71094,-1.57813 1.71094,-2.77344 z m 1.76953,8.09375 c 0,-1.12109 -0.85938,-1.97656 -2.75782,-1.84375 l -1.82031,0.13281 c -0.58984,0.15235 -1.52344,0.79688 -1.52344,1.82422 0,0.47656 0.35938,1.04297 0.74219,1.30859 0.625,0.4375 1.3125,0.53516 2.66016,0.53516 0.70312,0 2.78906,-0.49609 2.69922,-1.95703 z m -6.27344,1.95703 c -0.67969,-0.41797 -0.96875,-0.91406 -0.96875,-1.53906 0,-1.06641 1.08203,-1.88281 1.99609,-2.28125 v -0.0742 c -0.79687,-0.17188 -1.27343,-0.76172 -1.27343,-1.33203 0,-0.91016 1.04296,-1.5586 1.71093,-1.80469 v -0.0352 c -0.73828,-0.32421 -1.76562,-1.19921 -1.76562,-2.89062 0,-1.23438 1.09765,-2.75391 3.25,-2.75391 1.4414,0 2.20312,0.875 2.39062,1.10157 0.51563,-0.35938 1.15625,-0.74219 1.78516,-0.74219 0.625,0 0.93359,0.42187 0.89453,0.80078 0,0.35937 -0.30469,0.70312 -0.74219,0.70312 -0.32422,0 -0.51172,-0.15234 -0.66406,-0.28515 -0.11719,-0.0781 -0.25,-0.17188 -0.39844,-0.17188 -0.13672,0 -0.35937,0 -0.60937,0.11328 0.15234,0.38282 0.28515,0.80079 0.28515,1.44532 0,0.74218 -0.20703,1.46093 -0.70312,2.05078 -0.49219,0.55078 -1.57422,0.94922 -2.20313,0.94922 -0.41796,0 -0.68359,-0.0195 -0.96875,-0.0937 -0.38281,0.15234 -1.00781,0.53125 -1.00781,1.0625 0,0.78125 0.94922,0.72265 2.22266,0.64843 1.55859,-0.0781 2.50781,0.0937 3.26562,0.6836 0.82032,0.60547 0.91407,1.36719 0.9336,1.82422 0,0.89062 -0.32032,1.63281 -1.27344,2.33593 -0.49609,0.35938 -1.63281,0.89063 -3.25,0.89063 -0.91016,0 -1.99219,-0.0937 -2.90625,-0.60547"
     id="path64" />
</svg>
