<svg
   viewBox="0 0 956.24316 79.319679"
   version="1.1"
   id="svg353"
   sodipodi:docname="nlp.svg"
   inkscape:version="1.2.1 (9c6d41e410, 2022-07-14, custom)"
   xmlns:inkscape="http://www.inkscape.org/namespaces/inkscape"
   xmlns:sodipodi="http://sodipodi.sourceforge.net/DTD/sodipodi-0.dtd"
   xmlns="http://www.w3.org/2000/svg"
   xmlns:svg="http://www.w3.org/2000/svg">
  <defs
     id="defs357" />
  <sodipodi:namedview
     id="namedview355"
     pagecolor="#ffffff"
     bordercolor="#666666"
     borderopacity="1.0"
     inkscape:showpageshadow="2"
     inkscape:pageopacity="0.0"
     inkscape:pagecheckerboard="0"
     inkscape:deskcolor="#d1d1d1"
     inkscape:document-units="pt"
     showgrid="false"
     inkscape:zoom="0.560625"
     inkscape:cx="652.84281"
     inkscape:cy="570.79153"
     inkscape:window-width="1920"
     inkscape:window-height="1039"
     inkscape:window-x="0"
     inkscape:window-y="41"
     inkscape:window-maximized="1"
     inkscape:current-layer="svg353" />
  <path
     fill-rule="nonzero"
     fill="#000000"
     fill-opacity="1"
     d="m 12.4375,11.878905 h 0.476562 c 0.957031,1.11719 13.710938,17.05859 14.828125,18.17578 0.957035,1.27344 7.171875,8.76563 12.753905,15.6211 4.94141,5.89843 9.2461,10.83984 9.88281,11.63671 0.63672,0.64063 1.59375,1.27735 2.71094,1.27735 0.95703,0 0.95703,-1.11719 0.95703,-2.23047 v -21.04688 c 0,-8.1289 0.79688,-21.51953 1.19532,-26.9414 0.23828,-2.94922 1.03515,-4.22266 2.6289,-4.22266 h 2.23438 c 0.3164,0 0.47656,-0.32031 0.47656,-0.80078 v -1.83203 c 0,-0.23828 -0.16016,-0.55859 -0.79688,-0.55859 -0.95703,0 -2.87109,0.24218 -7.65234,0.24218 -5.42187,0 -7.97266,-0.24218 -8.92578,-0.24218 -0.64063,0 -0.64063,0.16015 -0.64063,0.64062 v 1.83203 c 0,0.39844 0,0.71875 0.48047,0.71875 h 2.55078 c 1.91407,0 3.66407,1.11328 4.22266,3.02735 0.39844,1.35546 0.71875,9.16796 0.87891,12.19531 0.16015,3.98437 0.16015,7.97265 0.16015,14.98437 v 8.29297 h -0.32031 c -1.27734,-1.59375 -13.71094,-17.05859 -14.82812,-18.33594 -1.59375,-2.23046 -17.214849,-21.83984 -18.011724,-22.63671 -0.480468,-0.47657 -0.957031,-0.71875 -1.914062,-0.71875 -0.480469,0 -1.195313,0.082 -2.230469,0.082 -0.957031,0.0781 -2.152344,0.16015 -3.507813,0.16015 -3.507812,0 -5.660156,0 -7.097656,-0.082 C 1.515624,1.039085 0.878906,0.957035 0.480468,0.957035 0.160156,0.957035 0,1.117185 0,1.437495 v 2.15235 c 0,0.3164 0.160156,0.47656 0.480468,0.55859 H 3.03125 c 3.507812,0 6.21875,3.66406 6.21875,8.44922 v 10.12109 c 0,12.75391 -0.480469,23.91407 -0.558594,25.34766 -0.398438,4.86328 -1.515625,6.61719 -3.589844,6.61719 H 2.394531 c -0.320313,0 -0.480469,0.32031 -0.480469,0.47656 v 1.99609 c 0,0.55469 0.160156,0.71485 0.480469,0.71485 0.796875,0 6.214843,-0.23828 8.289062,-0.23828 3.027344,0 7.8125,0.23828 8.609375,0.23828 0.636719,0 0.636719,-0.16016 0.636719,-0.63672 v -1.83203 c 0,-0.39844 0,-0.71875 -0.636719,-0.71875 H 17.21875 c -2.867188,0 -3.824219,-1.91406 -3.984376,-5.89844 C 13.074218,46.312495 12.4375,35.156245 12.4375,21.601565 Z m 71.421872,41.84766 c 1.11328,3.42968 3.66406,4.86328 6.69531,4.86328 4.6211,0 6.53516,-3.1875 7.33204,-4.625 0.32031,-0.79688 0.16015,-1.11328 -0.16016,-1.27344 l -0.95703,-0.63672 c -0.31641,-0.16015 -0.47656,-0.16015 -0.79688,0.31641 -0.3164,0.63672 -1.43359,1.27734 -2.55078,1.27734 -1.43359,0 -2.07031,-1.27734 -2.07031,-5.58203 v -3.82422 l -0.16016,-12.59375 c 0,-2.15234 -0.16015,-4.38672 -1.91406,-5.98047 -1.43359,-1.27343 -2.86719,-2.23047 -7.33203,-2.23047 -5.26172,0 -9.56641,1.91407 -12.91406,4.46485 -2.39063,1.75 -3.66797,4.30078 -3.66797,6.53515 0,1.75391 1.27734,2.71094 2.71094,2.71094 3.34765,0 4.78515,-1.7539 4.78515,-4.625 0,-1.91406 -0.79687,-3.10937 0.31641,-3.90625 1.27734,-0.95703 3.1914,-1.43359 4.625,-1.43359 1.7539,0 3.1875,0.32031 3.98437,1.19531 0.95703,0.95703 1.11719,2.87109 1.27735,4.46484 v 4.14454 c -1.75391,1.27343 -4.78516,2.55078 -9.72657,4.9414 -5.73828,2.55078 -7.33203,6.13672 -7.33203,9.80469 0,4.46484 2.55078,6.85547 5.5,6.85547 1.59375,0 3.26563,0 5.10157,-0.5586 3.10937,-1.03515 5.17968,-2.39062 6.93359,-4.30468 z m -0.79687,-3.34766 c 0,1.43359 -2.8711,3.66797 -5.10157,3.82813 -1.91406,0 -3.66796,-1.59766 -3.66796,-4.86329 0,-5.82031 5.26171,-7.17578 8.76953,-9.40625 z m 21.757808,-21.60156 v 10.36328 c 0,3.02734 -0.23828,9.40625 -0.23828,12.27344 0,3.34765 3.58984,7.17578 8.37109,7.17578 5.57813,0 8.92578,-2.39063 10.04297,-3.1875 0.32031,-0.32031 0.48047,-0.64063 0.32031,-1.11719 l -0.48047,-0.95703 c -0.16015,-0.39844 -0.39843,-0.39844 -0.95703,-0.16016 -1.11328,0.5586 -2.86718,0.95703 -4.62109,0.95703 -1.59375,0 -4.22656,-1.27343 -4.22656,-7.49218 v -7.17578 c 0,-3.50391 0.082,-7.33204 0.24218,-10.67969 h 9.64454 c 0.47656,0 0.71484,-0.16016 0.79687,-0.47656 l 0.79688,-3.34766 c 0.0781,-0.32031 -0.082,-0.64063 -0.5586,-0.64063 h -10.52344 l 0.32032,-7.89062 c 0,-0.63672 -0.32032,-1.11719 -0.95703,-1.11719 -0.47657,0 -0.95704,0.16016 -1.27344,0.79688 -1.75391,3.35156 -8.69141,9.25 -10.92188,10.04687 -1.035148,0.39844 -1.515618,0.875 -1.515618,1.51172 0,0.79688 0.48047,1.11719 1.117188,1.11719 z m 48.06641,28.85547 c 0.082,0.63672 0.48046,0.95703 1.11718,0.95703 0.63672,0 1.11719,-0.16016 1.59375,-0.32031 l 9.88672,-2.78907 c 0.31641,-0.0781 0.47656,-0.23828 0.39844,-0.71875 l -0.24219,-1.27343 c -0.0781,-0.32032 -0.3164,-0.39844 -0.95703,-0.32032 -0.95312,0.16016 -2.07031,0.16016 -2.55078,0.16016 -0.63672,0 -1.43359,-0.32031 -1.75,-2.71094 -0.16016,-1.59375 -0.16016,-5.41797 -0.16016,-9.24609 v -5.81641 c 0,-7.89453 0.47657,-9.96484 0.47657,-10.76172 0,-0.32031 -0.16016,-0.79687 -0.63672,-0.79687 -0.32032,0 -0.63672,0.0781 -1.03516,0.15625 -0.39844,0.082 -0.79687,0.16015 -1.35547,0.16015 h -9.88672 c -0.71484,0 -0.95703,0.082 -0.95703,0.64063 v 1.43359 c 0,0.31641 0.16016,0.47657 1.59766,0.63672 1.91015,0.16016 3.42578,0.63672 3.42578,2.71094 v 18.8125 c 0,0.95703 -0.55859,2.07031 -0.875,2.55078 -1.27734,1.75391 -3.66797,3.02734 -5.58203,3.02734 -1.75391,0 -3.50781,0.16016 -5.10156,-2.23046 -2.15235,-3.34766 -1.59375,-8.76954 -1.59375,-11.95704 v -5.02343 c 0,-5.5 0.32031,-9.16407 0.32031,-9.96094 0,-0.48047 -0.32031,-0.95703 -0.79688,-0.95703 -0.24218,0 -0.55859,0.0781 -0.8789,0.15625 -0.31641,0.082 -0.71485,0.16015 -1.19532,0.16015 h -9.5664 c -0.79688,0 -0.95703,0.16016 -0.95703,0.64063 v 1.43359 c 0,0.47657 0.48047,0.47657 1.7539,0.63672 1.4375,0.16016 2.55078,0.87891 2.79297,2.8711 0.15625,0.95703 0.15625,3.82421 0.15625,5.73828 0,1.67187 -0.0781,4.46484 -0.0781,8.28906 0,4.46484 0.0781,7.41406 2.94922,11.16016 2.78906,3.50781 5.33984,3.50781 8.21093,3.50781 4.14453,0 8.76953,-2.55078 10.51953,-5.42188 h 0.48047 z m 20.88671,-4.86328 c 0,1.51562 -0.79687,2.15234 -2.07421,2.15234 h -2.78907 c -0.55859,0 -0.71875,0.16016 -0.71875,0.63672 v 1.7539 c 0,0.39844 0.16016,0.5586 0.5586,0.5586 0.63672,0 3.74609,-0.23828 9.32812,-0.23828 5.81641,0 9.32422,0.23828 9.88281,0.23828 0.39844,0 0.5586,-0.16016 0.5586,-0.5586 v -1.83203 c 0,-0.39843 -0.16016,-0.55859 -0.63672,-0.55859 H 184.375 c -1.59375,0 -2.23438,-0.79688 -2.23438,-3.34766 v -15.22265 c 0,-1.03907 0.32031,-2.79297 0.95703,-3.90625 0.95703,-1.67578 2.39063,-2.3125 3.34766,-2.3125 0.79687,0 1.59375,0.16015 2.23437,0.63672 0.63672,0.32031 1.59375,0.63671 2.70704,0.63671 2.07421,0 4.30468,-2.07031 4.30468,-4.30078 0,-2.23437 -1.59375,-3.98828 -4.14453,-3.98828 -3.50781,0 -6.85547,2.71094 -9.5625,7.17578 h -0.32031 l -0.71875,-5.89843 c -0.0781,-0.48047 -0.23828,-0.95704 -0.71484,-0.95704 -0.48047,0 -0.79688,0.16016 -1.27735,0.31641 l -9.64453,4.54688 c -0.47656,0.23828 -0.63672,0.39843 -0.63672,0.71484 v 0.48047 c 0,0.3164 0.16016,0.47656 0.63672,0.63672 l 1.43359,0.79687 c 2.39454,1.27344 3.03125,2.55078 3.03125,6.21875 z m 43.04297,0.95703 c 1.11719,3.42968 3.66797,4.86328 6.69532,4.86328 4.625,0 6.53515,-3.1875 7.33593,-4.625 0.31641,-0.79688 0.15625,-1.11328 -0.16015,-1.27344 l -0.95703,-0.63672 c -0.32032,-0.16015 -0.48047,-0.16015 -0.79688,0.31641 -0.32031,0.63672 -1.4375,1.27734 -2.55078,1.27734 -1.4375,0 -2.07422,-1.27734 -2.07422,-5.58203 v -3.82422 l -0.16016,-12.59375 c 0,-2.15234 -0.15625,-4.38672 -1.91015,-5.98047 -1.4375,-1.27343 -2.8711,-2.23047 -7.33594,-2.23047 -5.26172,0 -9.5625,1.91407 -12.91016,4.46485 -2.39453,1.75 -3.66796,4.30078 -3.66796,6.53515 0,1.75391 1.27343,2.71094 2.71093,2.71094 3.34766,0 4.78125,-1.7539 4.78125,-4.625 0,-1.91406 -0.79687,-3.10937 0.32032,-3.90625 1.27343,-0.95703 3.1875,-1.43359 4.62109,-1.43359 1.75391,0 3.1875,0.32031 3.98437,1.19531 0.95704,0.95703 1.11719,2.87109 1.27735,4.46484 v 4.14454 c -1.75391,1.27343 -4.78125,2.55078 -9.72656,4.9414 -5.73829,2.55078 -7.33204,6.13672 -7.33204,9.80469 0,4.46484 2.55079,6.85547 5.5,6.85547 1.59375,0 3.26954,0 5.10157,-0.5586 3.10937,-1.03515 5.17968,-2.39062 6.93359,-4.30468 z m -0.79687,-3.34766 c 0,1.43359 -2.8711,3.66797 -5.10156,3.82813 -1.91407,0 -3.66797,-1.59766 -3.66797,-4.86329 0,-5.82031 5.26172,-7.17578 8.76953,-9.40625 z m 21.36328,-23.27344 v 24.94922 c 0,2.23047 -1.19531,2.86719 -1.99219,2.86719 h -3.03125 c -0.95703,0 -1.11328,0.16016 -1.11328,0.63672 v 1.51562 c 0,0.48047 0.15625,0.79688 0.63672,0.79688 0.63672,0 3.82422,-0.23828 9.88281,-0.23828 5.58203,0 9.08594,0.23828 9.72656,0.23828 0.31641,0 0.47657,-0.31641 0.47657,-0.79688 v -1.43359 c 0,-0.55859 -0.16016,-0.71875 -0.95703,-0.71875 h -3.02735 c -1.7539,0 -1.91406,-1.11328 -2.07422,-2.55078 C 245.75,49.980465 245.75,41.851565 245.75,38.183595 v -11.48047 c 0,-4.38281 0.16015,-20.96094 0.32031,-25.26563 0,-1.11718 -0.32031,-1.4375 -0.79688,-1.4375 -0.32031,0 -0.79687,0.16016 -1.7539,0.48047 -2.55078,1.59375 -8.76953,3.66797 -11.95703,4.6211 -0.47657,0.16015 -0.63672,0.48047 -0.63672,0.64062 v 0.95703 c 0,0.31641 0,0.47657 0.47656,0.63672 l 1.59375,0.47656 c 2.55078,0.79688 3.90625,2.07422 4.06641,4.78516 0.16015,2.07031 0.32031,8.92578 0.32031,14.50781 z m 0,0"
     id="path347"
     style="fill:#ffffff" />
  <path
     fill-rule="nonzero"
     fill="#000000"
     fill-opacity="1"
     d="m 318.41797,40.734375 c -0.47657,-0.16016 -0.63672,0 -0.95704,0.32031 -1.11718,3.02735 -6.21875,12.59375 -10.67968,13.23047 -3.1875,0.39844 -8.92969,0.39844 -13.39063,0.39844 h -4.46484 c -0.32031,-3.42578 -0.32031,-20.64453 -0.32031,-22.07813 v -6.85547 c 0,-5.58203 0.32031,-17.53906 0.32031,-18.65234 0,-2.15234 0.3164,-2.94922 2.71094,-2.94922 h 4.30468 c 0.63672,0 0.79688,-0.32031 0.79688,-0.64062 v -1.83203 c 0,-0.39844 -0.16016,-0.71875 -0.79688,-0.71875 -0.64062,0 -3.98828,0.24218 -12.59765,0.24218 -7.33203,0 -10.20313,-0.24218 -11,-0.24218 -0.47657,0 -0.63672,0.16015 -0.63672,0.64062 v 1.83203 c 0,0.23828 0.16015,0.71875 0.63672,0.71875 h 3.34765 c 2.07422,0 2.39453,0.79688 2.55078,2.86719 0.16016,1.35547 0.32032,9.80469 0.32032,14.90625 v 4.46484 c 0,4.78125 -0.32032,24.71094 -0.32032,26.14453 0,1.03516 -0.47656,2.15235 -3.34765,2.15235 h -3.1875 c -0.47656,0 -0.47656,0.16015 -0.47656,0.63672 v 1.83593 c 0,0.55469 0,0.71485 0.63671,0.71485 0.95704,0 3.82422,-0.23828 11,-0.23828 8.12891,0 31.08594,0.16015 33.16016,0.23828 0.47656,-2.15235 3.66797,-15.38281 3.98438,-15.86328 0,-0.47657 0,-0.63672 -0.16016,-0.79688 z m 24.55078,12.99219 c 1.11718,3.42968 3.66797,4.86328 6.69531,4.86328 4.625,0 6.53906,-3.1875 7.33594,-4.625 0.3164,-0.79688 0.15625,-1.11328 -0.16016,-1.27344 l -0.95703,-0.63672 c -0.32031,-0.16015 -0.48047,-0.16015 -0.79688,0.31641 -0.32031,0.63672 -1.43359,1.27734 -2.55078,1.27734 -1.43359,0 -2.07422,-1.27734 -2.07422,-5.58203 v -3.82422 l -0.16015,-12.59375 c 0,-2.15234 -0.15625,-4.38672 -1.91016,-5.98047 -1.4375,-1.27343 -2.87109,-2.23047 -7.33594,-2.23047 -5.25781,0 -9.5625,1.91407 -12.91015,4.46485 -2.39453,1.75 -3.66797,4.30078 -3.66797,6.53515 0,1.75391 1.27344,2.71094 2.71094,2.71094 3.34765,0 4.78125,-1.7539 4.78125,-4.625 0,-1.91406 -0.79688,-3.10937 0.32031,-3.90625 1.27344,-0.95703 3.1875,-1.43359 4.62109,-1.43359 1.75391,0 3.19141,0.32031 3.98828,1.19531 0.95313,0.95703 1.11329,2.87109 1.27344,4.46484 v 4.14454 c -1.7539,1.27343 -4.78125,2.55078 -9.72265,4.9414 -5.74219,2.55078 -7.33594,6.13672 -7.33594,9.80469 0,4.46484 2.55078,6.85547 5.5,6.85547 1.59375,0 3.26953,0 5.10156,-0.5586 3.10938,-1.03515 5.18359,-2.39062 6.93359,-4.30468 z m -0.79688,-3.34766 c 0,1.43359 -2.87109,3.66797 -5.10156,3.82813 -1.91406,0 -3.66797,-1.59766 -3.66797,-4.86329 0,-5.82031 5.26172,-7.17578 8.76953,-9.40625 z m 18.17578,-22.16016 c -0.48047,0.16016 -0.79687,0.48047 -0.79687,0.79688 v 0.63672 c 0,0.32031 0.15625,0.64062 0.63672,0.80078 l 0.63672,0.31641 c 1.91406,0.95703 3.34765,2.23437 3.34765,4.625 v 17.93359 c 0,1.27734 -1.11719,1.59375 -2.07031,1.59375 h -1.59766 c -0.63672,0 -0.79687,0.16016 -0.79687,0.63672 v 1.51562 c 0,0.48047 0.16015,0.79688 0.48047,0.79688 0.47656,0 3.02734,-0.23828 7.96875,-0.23828 4.78515,0 7.01562,0.23828 7.49609,0.23828 0.47656,0 0.63672,-0.31641 0.63672,-0.79688 v -1.43359 c 0,-0.55859 -0.16016,-0.71875 -0.79688,-0.71875 h -1.4375 c -1.11328,0 -1.51171,-0.95703 -1.51171,-2.71094 v -16.41797 c 0,-2.15234 0.39843,-4.38672 1.67187,-5.66015 1.91406,-1.75391 3.82813,-2.07422 5.10156,-2.07422 1.75391,0 3.19141,0 4.78516,1.4375 1.91016,1.59375 2.07031,3.66406 2.07031,6.85547 v 9.16406 c 0,3.19141 -0.0781,5.42187 -0.3164,7.49219 -0.16016,1.4375 -0.79688,1.91406 -1.4375,1.91406 h -1.59375 c -0.79688,0 -0.95704,0.16016 -0.95704,0.63672 v 1.35547 c 0,0.64062 0.16016,0.95703 0.64063,0.95703 0.47656,0 3.02734,-0.23828 7.80859,-0.23828 5.58203,0 7.97266,0.23828 8.60938,0.23828 0.48047,0 0.63672,-0.16016 0.63672,-0.5586 v -1.83203 c 0,-0.39843 -0.23828,-0.55859 -0.95313,-0.55859 H 396.375 c -0.95703,0 -1.91407,-0.47656 -1.91407,-2.23047 0,-1.59375 0.082,-5.10156 0.082,-7.65234 v -11.48047 c 0,-3.26563 -0.87891,-5.65625 -4.38282,-8.20703 -1.7539,-1.4375 -4.30468,-1.91407 -7.01562,-1.91407 -2.39063,0 -4.46485,0.79688 -6.37891,1.91407 -1.59375,0.79687 -3.02734,2.07031 -3.98437,3.1875 h -0.47657 l -0.64062,-4.14453 c -0.15625,-0.64063 -0.47656,-0.95704 -0.95703,-0.95704 -0.47656,0 -0.95313,0.31641 -1.59375,0.63672 z m 57.55078,51.09375 c 7.49219,0.16016 13.07032,-2.39062 15.6211,-4.46093 3.50781,-2.71094 4.94531,-5.73828 4.94531,-9.2461 0,-2.39453 -0.79687,-5.42187 -3.98828,-7.8125 -3.50781,-2.87109 -7.49219,-3.34765 -13.55078,-3.03125 -7.01172,0.32032 -10.04297,0.32032 -10.04297,-2.86718 0,-1.91407 1.99219,-3.34766 3.42969,-3.98829 1.67187,0.32032 2.78906,0.32032 4.54297,0.32032 3.74609,0 7.57031,-0.95703 10.12109,-3.66797 2.39062,-2.55078 3.34766,-5.73828 3.34766,-8.84766 0,-2.55078 -0.47657,-4.30469 -0.95704,-5.25781 0.64063,-0.48047 1.4375,-0.48047 1.91407,-0.48047 0.63672,0 1.27734,0.48047 1.91406,0.95703 0.47656,0.47656 1.27344,1.11719 2.47266,1.11719 1.75,0 3.1875,-1.59375 3.1875,-3.19141 0.16015,-2.07031 -1.19532,-3.82422 -4.14454,-3.82422 -2.07421,0 -4.86328,1.4336 -6.77734,2.94922 -0.79687,-0.875 -3.98437,-4.54297 -10.83984,-4.54297 -10.28125,0 -14.7461,6.375 -14.7461,11.63672 0,6.77735 3.82422,10.125 6.85547,11.87891 v 0.15625 c -2.39062,1.11719 -6.85547,3.82812 -6.85547,8.13281 0,2.55078 1.91407,5.10156 5.41797,5.89844 v 0.47656 c -3.82422,1.59375 -8.28906,4.625 -8.28906,8.92969 0,2.55078 1.11719,4.62109 3.98437,6.29687 3.50782,1.99219 8.60938,2.46875 12.4375,2.46875 z m 0.95704,-33.875 c -2.23438,0 -3.42969,-0.63671 -4.54297,-1.7539 -1.35547,-1.19531 -1.9961,-3.7461 -1.9961,-6.29688 0,-3.10937 0.48047,-6.77734 2.23438,-9.00781 1.19531,-1.43359 2.6289,-1.99219 4.30469,-1.99219 1.91015,0 3.02734,0.71875 3.74609,1.59375 0.79687,1.03516 1.75391,3.10938 1.75391,6.29688 0,5.66015 -1.35547,11.16015 -5.5,11.16015 z m 1.7539,16.5 c 7.65235,-0.32031 11,2.55079 11,7.17579 0.16016,4.69921 -6.69531,7.09375 -10.84375,7.09375 -4.62109,0 -6.85156,-0.48047 -9.32422,-1.91407 -1.51562,-0.8789 -2.87109,-3.26953 -2.87109,-5.5 0,-3.1875 2.63281,-5.73828 4.86328,-6.3789 z m 47.7461,-4.30468 c 0.0781,0.63672 0.47656,0.95703 1.11718,0.95703 0.63672,0 1.11328,-0.16016 1.59375,-0.32031 l 9.88282,-2.78907 c 0.32031,-0.0781 0.48046,-0.23828 0.39843,-0.71875 l -0.23828,-1.27343 c -0.082,-0.32032 -0.32031,-0.39844 -0.95703,-0.32032 -0.95703,0.16016 -2.07422,0.16016 -2.55078,0.16016 -0.63672,0 -1.43359,-0.32031 -1.75391,-2.71094 -0.16015,-1.59375 -0.16015,-5.41797 -0.16015,-9.24609 v -5.81641 c 0,-7.89453 0.48047,-9.96484 0.48047,-10.76172 0,-0.32031 -0.16016,-0.79687 -0.64063,-0.79687 -0.31641,0 -0.63672,0.0781 -1.03516,0.15625 -0.39843,0.082 -0.79687,0.16015 -1.35546,0.16015 h -9.88282 c -0.71875,0 -0.95703,0.082 -0.95703,0.64063 v 1.43359 c 0,0.31641 0.16016,0.47657 1.59375,0.63672 1.91406,0.16016 3.42969,0.63672 3.42969,2.71094 v 18.8125 c 0,0.95703 -0.55859,2.07031 -0.87891,2.55078 -1.27343,1.75391 -3.66797,3.02734 -5.57812,3.02734 -1.75391,0 -3.50781,0.16016 -5.10156,-2.23046 -2.15235,-3.34766 -1.59375,-8.76954 -1.59375,-11.95704 v -5.02343 c 0,-5.5 0.3164,-9.16407 0.3164,-9.96094 0,-0.48047 -0.3164,-0.95703 -0.79687,-0.95703 -0.23828,0 -0.5586,0.0781 -0.875,0.15625 -0.32032,0.082 -0.71875,0.16015 -1.19532,0.16015 h -9.5664 c -0.79688,0 -0.95703,0.16016 -0.95703,0.64063 v 1.43359 c 0,0.47657 0.47656,0.47657 1.7539,0.63672 1.4336,0.16016 2.55078,0.87891 2.78907,2.8711 0.16015,0.95703 0.16015,3.82421 0.16015,5.73828 0,1.67187 -0.0781,4.46484 -0.0781,8.28906 0,4.46484 0.0781,7.41406 2.94922,11.16016 2.78906,3.50781 5.33984,3.50781 8.20703,3.50781 4.14843,0 8.76953,-2.55078 10.52343,-5.42188 h 0.47657 z m 34.99218,-3.90625 c 1.11719,3.42968 3.66797,4.86328 6.69532,4.86328 4.625,0 6.53906,-3.1875 7.33593,-4.625 0.31641,-0.79688 0.15625,-1.11328 -0.16015,-1.27344 l -0.95703,-0.63672 c -0.32032,-0.16015 -0.47657,-0.16015 -0.79688,0.31641 -0.32031,0.63672 -1.43359,1.27734 -2.55078,1.27734 -1.43359,0 -2.07422,-1.27734 -2.07422,-5.58203 v -3.82422 l -0.15625,-12.59375 c 0,-2.15234 -0.16016,-4.38672 -1.91406,-5.98047 -1.4375,-1.27343 -2.8711,-2.23047 -7.33594,-2.23047 -5.25781,0 -9.5625,1.91407 -12.91016,4.46485 -2.39453,1.75 -3.66796,4.30078 -3.66796,6.53515 0,1.75391 1.27343,2.71094 2.71093,2.71094 3.34766,0 4.78125,-1.7539 4.78125,-4.625 0,-1.91406 -0.79687,-3.10937 0.32032,-3.90625 1.27343,-0.95703 3.1875,-1.43359 4.62109,-1.43359 1.75391,0 3.19141,0.32031 3.98828,1.19531 0.95313,0.95703 1.11328,2.87109 1.27344,4.46484 v 4.14454 c -1.75391,1.27343 -4.78125,2.55078 -9.72266,4.9414 -5.74219,2.55078 -7.33594,6.13672 -7.33594,9.80469 0,4.46484 2.55079,6.85547 5.5,6.85547 1.59375,0 3.26954,0 5.10157,-0.5586 3.10937,-1.03515 5.18359,-2.39062 6.9375,-4.30468 z m -0.79687,-3.34766 c 0,1.43359 -2.8711,3.66797 -5.10156,3.82813 -1.91407,0 -3.66797,-1.59766 -3.66797,-4.86329 0,-5.82031 5.26172,-7.17578 8.76953,-9.40625 z m 31.96484,28.93359 c 7.49219,0.16016 13.07422,-2.39062 15.625,-4.46093 3.50391,-2.71094 4.94141,-5.73828 4.94141,-9.2461 0,-2.39453 -0.79688,-5.42187 -3.98828,-7.8125 -3.50391,-2.87109 -7.49219,-3.34765 -13.55078,-3.03125 -7.01172,0.32032 -10.04297,0.32032 -10.04297,-2.86718 0,-1.91407 1.99218,-3.34766 3.42968,-3.98829 1.67188,0.32032 2.78907,0.32032 4.54297,0.32032 3.7461,0 7.57032,-0.95703 10.1211,-3.66797 2.39453,-2.55078 3.34765,-5.73828 3.34765,-8.84766 0,-2.55078 -0.47656,-4.30469 -0.95312,-5.25781 0.63672,-0.48047 1.43359,-0.48047 1.91015,-0.48047 0.64063,0 1.27735,0.48047 1.91407,0.95703 0.48047,0.47656 1.27734,1.11719 2.47265,1.11719 1.75391,0 3.1875,-1.59375 3.1875,-3.19141 0.16016,-2.07031 -1.19531,-3.82422 -4.14453,-3.82422 -2.07422,0 -4.86328,1.4336 -6.77734,2.94922 -0.79688,-0.875 -3.98438,-4.54297 -10.83985,-4.54297 -10.28125,0 -14.74609,6.375 -14.74609,11.63672 0,6.77735 3.82422,10.125 6.85547,11.87891 v 0.15625 c -2.39063,1.11719 -6.85547,3.82812 -6.85547,8.13281 0,2.55078 1.91406,5.10156 5.42188,5.89844 v 0.47656 c -3.82813,1.59375 -8.29297,4.625 -8.29297,8.92969 0,2.55078 1.11718,4.62109 3.98828,6.29687 3.5039,1.99219 8.60547,2.46875 12.43359,2.46875 z m 0.95703,-33.875 c -2.23437,0 -3.42968,-0.63671 -4.54297,-1.7539 -1.35546,-1.19531 -1.99218,-3.7461 -1.99218,-6.29688 0,-3.10937 0.47656,-6.77734 2.23047,-9.00781 1.19531,-1.43359 2.6289,-1.99219 4.30468,-1.99219 1.91407,0 3.02735,0.71875 3.7461,1.59375 0.79687,1.03516 1.7539,3.10938 1.7539,6.29688 0,5.66015 -1.35547,11.16015 -5.5,11.16015 z m 1.75391,16.5 c 7.65234,-0.32031 11,2.55079 11,7.17579 0.16016,4.69921 -6.69531,7.09375 -10.83984,7.09375 -4.625,0 -6.85547,-0.48047 -9.32813,-1.91407 -1.51562,-0.8789 -2.87109,-3.26953 -2.87109,-5.5 0,-3.1875 2.63281,-5.73828 4.86328,-6.3789 z m 29.89062,-24.47265 h 19.28907 c 1.4375,0 2.23437,-0.0781 2.23437,-1.27344 0,-3.26953 -2.94922,-12.75391 -12.03906,-12.75391 -6.93359,0 -10.51953,1.59375 -13.86719,5.89844 -3.42969,4.46485 -3.90625,7.41406 -3.90625,11.79688 0,4.9414 0.79688,8.92578 4.46485,13.15234 2.78906,3.1875 6.375,4.30469 11.47656,4.30469 8.76953,0 12.83203,-5.42188 14.50781,-8.44922 0.55859,-1.03516 0.39844,-1.35547 0,-1.59375 l -1.19531,-0.71875 c -0.32031,-0.16016 -0.63672,-0.16016 -0.95703,0.39844 -1.67578,2.55078 -4.70313,4.625 -9.64453,4.625 -4.54297,0 -10.36329,-4.78516 -10.36329,-12.91407 z m 0.23829,-2.86719 c 1.03906,-5.34375 3.42968,-8.21094 7.33593,-8.21094 4.14453,0 4.94141,4.70313 4.94141,7.09375 0,0.63672 -0.95703,1.11719 -2.63281,1.11719 z m 0,0"
     id="path349"
     style="fill:#ffffff" />
  <path
     fill-rule="nonzero"
     fill="#000000"
     fill-opacity="1"
     d="m 617.61718,29.734375 c 0,9.24609 -0.16015,21.67969 -0.23828,22.47656 -0.24218,2.15235 -0.8789,2.47266 -3.58984,2.47266 h -2.55078 c -0.47656,0 -0.47656,0.16015 -0.47656,0.63672 v 1.99218 c 0,0.24219 0,0.5586 0.63671,0.5586 0.79688,0 3.98438,-0.23828 11,-0.23828 8.60938,0 11.16016,0.23828 12.27735,0.23828 0.63672,0 0.63672,-0.31641 0.63672,-0.79688 v -1.83203 c 0,-0.23828 0,-0.55859 -0.63672,-0.55859 h -4.46485 c -1.43359,0 -2.23046,-0.79688 -2.47265,-2.55078 -0.0781,-1.03516 -0.0781,-11.875 -0.0781,-15.70313 v -3.50781 c 2.07422,0.32031 4.46485,0.32031 7.17578,0.32031 13.55079,0 21.20313,-6.21875 21.20313,-16.10156 0,-4.94141 -2.39453,-9.40625 -6.05859,-12.11719 -4.625,-3.1875 -9.2461,-4.0664 -18.8125,-4.0664 -2.71094,0 -7.33204,0.24218 -8.76954,0.24218 -7.96875,0 -10.83984,-0.24218 -11.79687,-0.24218 -0.32031,0 -0.47656,0.16015 -0.47656,0.64062 v 1.99219 c 0,0.39844 0.15625,0.55859 0.47656,0.55859 h 4.14453 c 1.75391,0 2.63281,0.39844 2.78906,1.75 0.082,0.87891 0.082,9.32813 0.082,14.58985 z m 10.04297,-25.50781 c 1.27735,-0.63672 3.1875,-0.5586 4.625,-0.5586 3.82422,0 12.59375,2.47266 12.59375,13.3125 0,2.8711 -0.32031,5.89844 -1.91406,8.28907 -1.91406,2.71093 -6.05859,5.42187 -9.56641,5.42187 -2.07031,0 -4.30468,-0.16016 -5.73828,-0.63672 z m 34.59375,48.54297 c 0,1.51562 -0.79687,2.15234 -2.07031,2.15234 h -2.79297 c -0.55469,0 -0.71484,0.16016 -0.71484,0.63672 v 1.7539 c 0,0.39844 0.16015,0.5586 0.55859,0.5586 0.63672,0 3.7461,-0.23828 9.32422,-0.23828 5.82031,0 9.32813,0.23828 9.88672,0.23828 0.39844,0 0.55469,-0.16016 0.55469,-0.5586 v -1.83203 c 0,-0.39843 -0.15625,-0.55859 -0.63672,-0.55859 h -3.50781 c -1.59375,0 -2.23047,-0.79688 -2.23047,-3.34766 v -15.22265 c 0,-1.03907 0.32031,-2.79297 0.95703,-3.90625 0.95703,-1.67578 2.39062,-2.3125 3.34765,-2.3125 0.79688,0 1.59375,0.16015 2.23047,0.63672 0.63672,0.32031 1.59375,0.63671 2.71094,0.63671 2.07422,0 4.30469,-2.07031 4.30469,-4.30078 0,-2.23437 -1.59375,-3.98828 -4.14453,-3.98828 -3.50782,0 -6.85547,2.71094 -9.56641,7.17578 h -0.32031 l -0.71485,-5.89843 c -0.082,-0.48047 -0.23828,-0.95704 -0.71875,-0.95704 -0.47656,0 -0.79687,0.16016 -1.27343,0.31641 l -9.64453,4.54688 c -0.48047,0.23828 -0.64063,0.39843 -0.64063,0.71484 v 0.48047 c 0,0.3164 0.16016,0.47656 0.64063,0.63672 l 1.43359,0.79687 c 2.39062,1.27344 3.02734,2.55078 3.02734,6.21875 z m 41.05078,-29.33204 c -3.26562,0 -7.41015,0.63672 -11.3164,3.82422 -4.78516,3.82813 -6.69531,9.40625 -6.69531,13.23438 0,4.85937 0.79687,8.21094 4.30468,12.35547 3.58594,4.30468 7.89063,5.73828 12.91016,5.73828 5.34375,0 10.125,-2.07422 13.39453,-5.73828 3.02734,-3.34766 4.94141,-7.65235 4.94141,-12.11719 0,-4.70313 -1.75391,-8.84766 -5.5,-12.59375 -2.71094,-2.63281 -6.69532,-4.70313 -12.03907,-4.70313 z m -0.15625,31.80469 c -3.1914,0 -4.94531,-1.27734 -6.30078,-3.42969 -2.14843,-3.42578 -2.46875,-6.45703 -2.46875,-11.07812 0,-5.82031 0.95703,-9.16797 3.42578,-11.95703 1.35547,-1.51563 2.94922,-2.15235 5.02344,-2.15235 3.66797,0 8.28906,5.10157 8.28906,13.8711 0,8.1289 -2.71093,14.74609 -7.96875,14.74609 z m 52.28907,-4.86328 c -0.23828,-0.23828 -0.5586,-0.23828 -0.71875,-0.0781 -2.15235,1.67187 -4.6211,3.02734 -8.60938,3.02734 -2.55078,0 -6.05469,-0.79688 -8.20703,-4.30469 -2.94922,-4.86328 -3.10937,-8.1289 -3.10937,-12.91406 0,-5.65625 3.98437,-9.24609 7.17187,-9.24609 2.07422,0 3.82813,0.55859 4.94531,3.26953 0.79688,2.07031 2.07032,3.98437 4.78125,3.98437 2.23047,0 3.50782,-1.59375 3.50782,-3.50781 0,-2.39063 -2.07422,-7.17188 -11.32032,-7.17188 -4.46484,0 -8.28906,1.59375 -11.63672,4.6211 -3.98828,3.66797 -5.89843,9.24609 -5.89843,14.26953 0,3.98437 0.79687,7.17578 3.82422,11 3.03125,3.82812 7.33593,5.26172 12.7539,5.26172 5.89844,0 11.48047,-3.66797 13.47266,-6.13672 0.3164,-0.39844 0.23828,-0.71875 0,-0.95703 z m 12.51562,-12.91406 h 19.28906 c 1.4336,0 2.23047,-0.0781 2.23047,-1.27344 0,-3.26953 -2.94922,-12.75391 -12.03515,-12.75391 -6.9336,0 -10.52344,1.59375 -13.8711,5.89844 -3.42578,4.46485 -3.90625,7.41406 -3.90625,11.79688 0,4.9414 0.80078,8.92578 4.46485,13.15234 2.78906,3.1875 6.3789,4.30469 11.48047,4.30469 8.76562,0 12.83203,-5.42188 14.50781,-8.44922 0.55469,-1.03516 0.39844,-1.35547 0,-1.59375 l -1.19531,-0.71875 c -0.32032,-0.16016 -0.64063,-0.16016 -0.95704,0.39844 -1.67578,2.55078 -4.70312,4.625 -9.64453,4.625 -4.54687,0 -10.36328,-4.78516 -10.36328,-12.91407 z m 0.23828,-2.86719 c 1.03516,-5.34375 3.42578,-8.21094 7.33203,-8.21094 4.14454,0 4.94141,4.70313 4.94141,7.09375 0,0.63672 -0.95312,1.11719 -2.62891,1.11719 z m 27.89844,21.04297 c 0.0781,0.32031 0.32031,0.55859 0.63672,0.875 0.87891,0.71875 4.38672,2.07422 8.60937,2.07422 7.89063,0 13.3125,-4.78125 13.3125,-11.48047 0,-2.70703 -0.63671,-4.62109 -2.39062,-6.375 -2.07422,-2.23047 -4.30469,-3.1875 -7.97266,-4.14453 -4.78125,-1.27735 -7.17187,-2.23438 -7.17187,-5.5 0,-2.78906 2.55078,-4.54297 5.5,-4.54297 2.6289,0 4.0625,1.43359 5.01953,2.46875 l 3.82812,4.30469 c 0.16016,0.32031 0.39844,0.39843 0.63672,0.32031 l 1.51563,-0.71875 c 0.16015,-0.16016 0.16015,-0.55859 0.0781,-0.875 l -1.03515,-5.42188 c -0.082,-0.47656 -0.32032,-0.79687 -1.51563,-1.43359 -1.43359,-0.79687 -3.82422,-1.75391 -7.73047,-1.75391 -3.26953,0 -5.5,0.71485 -8.28906,2.62891 -2.79297,1.99219 -4.06641,4.86328 -4.06641,8.37109 0,5.66016 4.30469,8.3711 9.72266,9.96485 5.58203,1.59375 7.65234,3.02734 7.65234,6.21484 0,2.94922 -2.55078,4.86328 -5.66015,4.86328 -3.90235,0 -5.41797,-1.91406 -6.85156,-4.30468 l -2.63282,-4.46485 c -0.16015,-0.3164 -0.39843,-0.3164 -0.71484,-0.23828 l -1.51563,0.48047 c -0.23828,0.0781 -0.32031,0.31641 -0.23828,0.63672 z m 29.49219,0 c 0.082,0.32031 0.32031,0.55859 0.64062,0.875 0.875,0.71875 4.38282,2.07422 8.60547,2.07422 7.89453,0 13.3125,-4.78125 13.3125,-11.48047 0,-2.70703 -0.63672,-4.62109 -2.39062,-6.375 -2.07032,-2.23047 -4.30469,-3.1875 -7.97266,-4.14453 -4.78125,-1.27735 -7.17187,-2.23438 -7.17187,-5.5 0,-2.78906 2.55078,-4.54297 5.5,-4.54297 2.6289,0 4.0664,1.43359 5.02343,2.46875 l 3.82422,4.30469 c 0.16016,0.32031 0.39844,0.39843 0.63672,0.32031 l 1.51563,-0.71875 c 0.16015,-0.16016 0.16015,-0.55859 0.0781,-0.875 l -1.03516,-5.42188 c -0.0781,-0.47656 -0.32031,-0.79687 -1.51562,-1.43359 -1.43359,-0.79687 -3.82422,-1.75391 -7.73047,-1.75391 -3.26953,0 -5.5,0.71485 -8.28906,2.62891 -2.78906,1.99219 -4.06641,4.86328 -4.06641,8.37109 0,5.66016 4.30469,8.3711 9.72656,9.96485 5.57813,1.59375 7.65235,3.02734 7.65235,6.21484 0,2.94922 -2.55078,4.86328 -5.66016,4.86328 -3.90625,0 -5.42187,-1.91406 -6.85547,-4.30468 l -2.63281,-4.46485 c -0.15625,-0.3164 -0.39844,-0.3164 -0.71484,-0.23828 l -1.51563,0.48047 c -0.23828,0.0781 -0.32031,0.31641 -0.23828,0.63672 z m 32.20312,-9.48438 c 0,2.23047 -0.0781,4.78125 -0.15625,7.17188 -0.082,1.27734 -0.48047,1.59375 -1.27734,1.59375 h -3.50781 c -0.47657,0 -0.79688,0.16016 -0.79688,0.63672 v 1.51562 c 0,0.63672 0.23828,0.79688 0.63672,0.79688 0.95703,0 3.98828,-0.23828 8.60938,-0.23828 5.33984,0 9.00781,0.23828 9.64453,0.23828 0.48047,0 0.64062,-0.31641 0.64062,-0.79688 v -1.59375 c 0,-0.39843 -0.16015,-0.55859 -0.79687,-0.55859 h -3.19141 c -0.79687,0 -1.11328,-0.63672 -1.27344,-2.07031 -0.16015,-0.95703 -0.16015,-3.82813 -0.16015,-6.85547 v -8.60938 c 0,-6.61718 0,-11.71875 0.16015,-12.99218 0.0781,-0.64063 -0.16015,-0.95704 -0.63672,-0.95704 -0.48046,0 -1.11718,0.16016 -1.91406,0.47657 -1.35547,0.55859 -9.24609,3.34765 -10.36328,3.82812 -0.39844,0.16016 -0.55859,0.31641 -0.55859,0.63672 v 0.875 c 0,0.32031 0.082,0.55859 0.79687,0.71875 3.66797,0.95703 4.14453,2.55078 4.14453,4.94141 z m 8.13282,-35.87109 c 0,-1.91406 -1.59375,-4.625 -4.94141,-4.625 -3.26953,0 -5.58203,2.55078 -5.58203,4.94141 0,2.79297 2.55078,4.78515 5.10156,4.78515 3.74609,0 5.42188,-2.71093 5.42188,-5.10156 z m 9.80468,17.93359 c -0.48047,0.16016 -0.79687,0.48047 -0.79687,0.79688 v 0.63672 c 0,0.32031 0.16015,0.64062 0.63672,0.80078 l 0.63672,0.31641 c 1.91406,0.95703 3.34765,2.23437 3.34765,4.625 v 17.93359 c 0,1.27734 -1.11328,1.59375 -2.07031,1.59375 h -1.59375 c -0.64063,0 -0.79688,0.16016 -0.79688,0.63672 v 1.51562 c 0,0.48047 0.15625,0.79688 0.47657,0.79688 0.47656,0 3.02734,-0.23828 7.97265,-0.23828 4.78125,0 7.01172,0.23828 7.49219,0.23828 0.47656,0 0.63672,-0.31641 0.63672,-0.79688 v -1.43359 c 0,-0.55859 -0.16016,-0.71875 -0.79688,-0.71875 h -1.43359 c -1.11719,0 -1.51562,-0.95703 -1.51562,-2.71094 v -16.41797 c 0,-2.15234 0.39843,-4.38672 1.67187,-5.66015 1.91406,-1.75391 3.82813,-2.07422 5.10156,-2.07422 1.75391,0 3.19141,0 4.78516,1.4375 1.91406,1.59375 2.07031,3.66406 2.07031,6.85547 v 9.16406 c 0,3.19141 -0.0781,5.42187 -0.3164,7.49219 -0.16016,1.4375 -0.79688,1.91406 -1.4375,1.91406 h -1.59375 c -0.79688,0 -0.95704,0.16016 -0.95704,0.63672 v 1.35547 c 0,0.64062 0.16016,0.95703 0.64063,0.95703 0.47656,0 3.02734,-0.23828 7.80859,-0.23828 5.58203,0 7.97266,0.23828 8.60938,0.23828 0.48047,0 0.64062,-0.16016 0.64062,-0.5586 v -1.83203 c 0,-0.39843 -0.24218,-0.55859 -0.95703,-0.55859 H 911.75 c -0.95703,0 -1.91016,-0.47656 -1.91016,-2.23047 0,-1.59375 0.0781,-5.10156 0.0781,-7.65234 v -11.48047 c 0,-3.26563 -0.875,-5.65625 -4.38282,-8.20703 -1.7539,-1.4375 -4.30468,-1.91407 -7.01562,-1.91407 -2.39063,0 -4.46485,0.79688 -6.37891,1.91407 -1.59375,0.79687 -3.02734,2.07031 -3.98437,3.1875 h -0.47657 l -0.64062,-4.14453 c -0.15625,-0.64063 -0.47656,-0.95704 -0.95313,-0.95704 -0.48046,0 -0.95703,0.31641 -1.59765,0.63672 z m 57.55081,51.09375 c 7.4922,0.16016 13.0742,-2.39062 15.625,-4.46093 3.5039,-2.71094 4.9414,-5.73828 4.9414,-9.2461 0,-2.39453 -0.7969,-5.42187 -3.9883,-7.8125 -3.5039,-2.87109 -7.4922,-3.34765 -13.5508,-3.03125 -7.0117,0.32032 -10.04295,0.32032 -10.04295,-2.86718 0,-1.91407 1.99215,-3.34766 3.42965,-3.98829 1.6719,0.32032 2.7891,0.32032 4.543,0.32032 3.7461,0 7.5703,-0.95703 10.1211,-3.66797 2.3945,-2.55078 3.3477,-5.73828 3.3477,-8.84766 0,-2.55078 -0.4766,-4.30469 -0.9532,-5.25781 0.6367,-0.48047 1.4336,-0.48047 1.9102,-0.48047 0.6406,0 1.2773,0.48047 1.914,0.95703 0.4805,0.47656 1.2774,1.11719 2.4727,1.11719 1.7539,0 3.1875,-1.59375 3.1875,-3.19141 0.1602,-2.07031 -1.1953,-3.82422 -4.1445,-3.82422 -2.0742,0 -4.8633,1.4336 -6.7774,2.94922 -0.7968,-0.875 -3.9843,-4.54297 -10.8398,-4.54297 -10.28126,0 -14.74611,6.375 -14.74611,11.63672 0,6.77735 3.82422,10.125 6.85547,11.87891 v 0.15625 c -2.39062,1.11719 -6.85547,3.82812 -6.85547,8.13281 0,2.55078 1.91407,5.10156 5.42188,5.89844 v 0.47656 c -3.82813,1.59375 -8.29297,4.625 -8.29297,8.92969 0,2.55078 1.11719,4.62109 3.98828,6.29687 3.50391,1.99219 8.60542,2.46875 12.43362,2.46875 z m 0.957,-33.875 c -2.2344,0 -3.4297,-0.63671 -4.543,-1.7539 -1.3554,-1.19531 -1.99215,-3.7461 -1.99215,-6.29688 0,-3.10937 0.47655,-6.77734 2.23045,-9.00781 1.1953,-1.43359 2.6289,-1.99219 4.3047,-1.99219 1.9141,0 3.0273,0.71875 3.7461,1.59375 0.7969,1.03516 1.7539,3.10938 1.7539,6.29688 0,5.66015 -1.3555,11.16015 -5.5,11.16015 z m 1.7539,16.5 c 7.6524,-0.32031 11,2.55079 11,7.17579 0.1602,4.69921 -6.6953,7.09375 -10.8398,7.09375 -4.625,0 -6.8555,-0.48047 -9.32816,-1.91407 -1.51562,-0.8789 -2.87109,-3.26953 -2.87109,-5.5 0,-3.1875 2.63281,-5.73828 4.86325,-6.3789 z m 0,0"
     id="path351"
     style="fill:#ffffff" />
</svg>
