<?xml version="1.0" encoding="UTF-8" standalone="no"?>
<svg
   width="326.17581pt"
   height="58.828121pt"
   viewBox="0 0 326.17582 58.828121"
   version="1.1"
   id="svg646"
   sodipodi:docname="usc-nlp.svg"
   inkscape:version="1.2.1 (9c6d41e410, 2022-07-14, custom)"
   xmlns:inkscape="http://www.inkscape.org/namespaces/inkscape"
   xmlns:sodipodi="http://sodipodi.sourceforge.net/DTD/sodipodi-0.dtd"
   xmlns="http://www.w3.org/2000/svg"
   xmlns:svg="http://www.w3.org/2000/svg">
  <defs
     id="defs650" />
  <sodipodi:namedview
     id="namedview648"
     pagecolor="#ffffff"
     bordercolor="#666666"
     borderopacity="1.0"
     inkscape:showpageshadow="2"
     inkscape:pageopacity="0.0"
     inkscape:pagecheckerboard="0"
     inkscape:deskcolor="#d1d1d1"
     inkscape:document-units="pt"
     showgrid="false"
     inkscape:zoom="1.7501014"
     inkscape:cx="159.70503"
     inkscape:cy="118.85026"
     inkscape:window-width="1920"
     inkscape:window-height="1039"
     inkscape:window-x="0"
     inkscape:window-y="41"
     inkscape:window-maximized="1"
     inkscape:current-layer="svg646" />
  <path
     fill-rule="nonzero"
     fill="rgb(0%, 0%, 0%)"
     fill-opacity="1"
     d="m 7.01562,27.02344 c 0,10.4414 0.32031,15.70312 1.4336,19.21093 1.59375,5.10157 4.78515,8.76954 9.40625,10.67969 3.03125,1.27735 7.65234,1.91406 11.48046,1.91406 6.0586,0 11.16016,-1.91406 14.50782,-4.9414 4.30468,-3.82813 6.21484,-8.76953 6.69531,-15.30469 0.31641,-3.1875 0.47656,-17.05859 0.47656,-18.17578 0,-1.03516 0,-12.19531 0.16016,-13.15234 0.16015,-0.875 0.47656,-3.10938 3.34765,-3.10938 h 2.8711 c 0.39844,0 0.47656,-0.23828 0.47656,-0.71484 V 1.59375 c 0,-0.39844 -0.0781,-0.63672 -0.79687,-0.63672 -0.63672,0 -3.1875,0.23828 -8.12891,0.23828 -5.26172,0 -8.92969,-0.23828 -9.72656,-0.23828 -0.47657,0 -0.63672,0.16016 -0.63672,0.63672 v 1.99609 c 0,0.31641 0.16015,0.55469 0.63672,0.55469 h 2.87109 c 1.75391,0 3.02734,1.4375 3.26563,3.50781 0.24218,1.83594 0.8789,8.84766 0.8789,15.22657 v 14.34765 c 0,5.82031 -1.59375,10.44141 -4.625,13.47266 -2.55078,2.39062 -7.01172,3.82422 -10.67969,3.82422 -3.82812,0 -8.13281,-1.27344 -10.83984,-4.94141 C 18.17578,47.03125 17.53906,43.36328 17.29687,39.69922 17.14062,37.14844 17.05859,31.48828 17.05859,27.5 v -9.88281 c 0,-4.6211 0.16016,-9.40625 0.23828,-10.36328 0.082,-1.67188 1.51563,-3.10938 3.90625,-3.10938 h 3.34766 c 0.48047,0 0.64062,-0.15625 0.64062,-0.63672 V 1.51562 c 0,-0.39843 -0.16015,-0.55859 -0.64062,-0.55859 -0.95703,0 -4.78125,0.23828 -11.47656,0.23828 C 5.42187,1.19531 1.59375,0.95703 0.79687,0.95703 0.16015,0.95703 0,1.11719 0,1.59375 v 1.83594 c 0,0.55859 0.16015,0.71484 0.64062,0.71484 h 3.66406 c 2.07422,0 2.71094,1.27734 2.71094,3.98828 z m 57.71094,12.67578 c -0.32031,0 -0.39844,0.15625 -0.47656,0.63672 -0.16016,0.95703 -1.27735,13.87109 -1.4375,14.82422 0,0.79687 0.32031,1.27734 0.95703,1.27734 0.63672,0 0.95703,-0.16016 1.43359,-0.95703 0.48047,-0.79688 0.80078,-1.4336 1.27735,-1.4336 0.47656,0 0.95703,0.31641 1.91406,0.95704 3.1875,2.39062 7.01172,3.82421 13.55078,3.82421 10.51953,0 16.89844,-7.97265 16.89844,-17.69531 0,-5.33984 -1.4336,-8.6875 -3.98438,-11.39844 C 91.82812,26.54687 88.0039,24.94922 83.3789,23.51562 80.1914,22.55859 75.72656,20.64844 73.65234,18.57422 71.74218,16.5 71.42187,14.10937 71.42187,11.39844 c 0,-2.94922 2.55078,-8.05078 8.92969,-8.05078 3.66406,0 6.21484,1.11718 8.28906,3.34765 2.86719,3.03125 4.14453,6.21875 4.94141,8.45313 0.16015,0.47656 0.47656,0.55468 0.79687,0.47656 l 1.27735,-0.39844 c 0.3164,-0.0781 0.47656,-0.23828 0.47656,-0.55859 0,-0.79688 -1.27344,-11.95703 -1.27344,-13.23047 0,-0.79688 -0.16015,-1.27734 -0.64062,-1.27734 -0.47657,0 -0.79688,0.16015 -1.11328,0.48046 L 92.0664,1.67578 C 91.66797,2.07422 91.1914,2.23437 90.39453,1.91406 88.80078,1.27734 85.60937,0 80.35156,0 c -4.625,0 -8.13281,1.11719 -11.32031,3.82812 -3.82813,3.02735 -5.57813,6.69532 -5.57813,11.16016 0,4.85938 1.27344,8.84766 3.98438,11.39844 3.82422,3.50781 9.08593,5.73828 11.63672,6.69531 8.44921,3.1875 11.79687,5.57813 11.79687,12.91406 0,6.61328 -6.05859,9.32422 -10.36328,9.32422 -3.98438,0 -8.12891,-1.91406 -10.51953,-5.73828 -2.23438,-3.50781 -2.8711,-6.53516 -3.03125,-9.08594 0,-0.48047 -0.15625,-0.64062 -0.47656,-0.64062 z m 93.66016,3.74609 c -0.23829,-0.24219 -0.5586,0 -0.95704,0.5586 -3.34765,4.85937 -10.28125,9.24609 -19.05078,9.24609 -3.82422,0 -8.44922,-0.64063 -13.71093,-6.21875 -5.89844,-6.37891 -7.33204,-15.78125 -7.33204,-20.72656 0,-11.47657 5.26172,-22.95703 18.01563,-22.95703 6.21484,0 10.36328,2.55078 13.86719,5.89843 3.35156,3.50782 5.26172,7.4961 6.21875,10.36328 0.23828,0.64063 0.48047,0.95704 0.8789,0.79688 l 1.51172,-0.47656 c 0.32031,-0.082 0.39844,-0.32032 0.32031,-0.79688 -0.32031,-2.39062 -1.91406,-15.14453 -1.91406,-16.58203 0,-1.11328 -0.16015,-1.27344 -1.11328,-1.27344 -0.95703,0 -1.11719,0 -1.27734,0.47657 l -0.63672,2.07421 c -0.16016,0.63672 -0.48047,0.63672 -1.59375,0 C 148.74218,2.23437 142.84375,0 135.51172,0 c -9.56641,0 -16.42188,3.82812 -20.72657,8.44922 -5.57812,6.05859 -8.1289,13.55078 -8.1289,21.36328 0,7.01562 2.70703,16.26172 8.60547,21.52344 4.94531,4.46484 10.68359,7.49218 20.88671,7.49218 11.32032,0 18.97266,-6.53515 23.75391,-13.39062 0.16016,-0.32031 0.0781,-0.55859 -0.16016,-0.79688 z m 0,0"
     id="path642"
     style="fill:#990000;fill-opacity:1" />
  <path
     fill-rule="nonzero"
     fill="#000000"
     fill-opacity="1"
     d="m 175.83985,11.87891 h 0.47656 c 0.95703,1.11718 13.71094,17.05859 14.82812,18.17187 0.95703,1.27734 7.17188,8.76953 12.75391,15.625 4.94141,5.89844 9.24609,10.83984 9.88281,11.63672 0.63672,0.64062 1.59375,1.27734 2.71094,1.27734 0.95703,0 0.95703,-1.11718 0.95703,-2.23437 V 35.3125 c 0,-8.12891 0.79688,-21.51953 1.19531,-26.94141 0.23828,-2.94922 1.03516,-4.22656 2.62891,-4.22656 h 2.23437 c 0.31641,0 0.47657,-0.31641 0.47657,-0.79687 V 1.51562 c 0,-0.23828 -0.16016,-0.55859 -0.79688,-0.55859 -0.95703,0 -2.87109,0.23828 -7.65234,0.23828 -5.42188,0 -7.97266,-0.23828 -8.92578,-0.23828 -0.64063,0 -0.64063,0.16016 -0.64063,0.63672 v 1.83594 c 0,0.39843 0,0.71484 0.48047,0.71484 H 209 c 1.91406,0 3.66406,1.11719 4.22266,3.03125 0.39844,1.35547 0.71875,9.16797 0.8789,12.19531 0.16016,3.98438 0.16016,7.97266 0.16016,14.98438 v 8.29297 h -0.32031 C 212.66406,41.05469 200.23047,25.58984 199.11328,24.3125 197.51953,22.08203 181.89844,2.47266 181.10156,1.67578 180.6211,1.19531 180.14453,0.95703 179.1875,0.95703 c -0.48047,0 -1.19531,0.082 -2.23047,0.082 -0.95703,0.0781 -2.15234,0.15625 -3.50781,0.15625 -3.50781,0 -5.66016,0 -7.09766,-0.0781 -1.43359,-0.0781 -2.07031,-0.16016 -2.46875,-0.16016 -0.32031,0 -0.48046,0.16016 -0.48046,0.48047 v 2.15234 c 0,0.31641 0.16015,0.47657 0.48046,0.55469 h 2.55079 c 3.50781,0 6.21875,3.66797 6.21875,8.45313 v 10.12109 c 0,12.75391 -0.48047,23.91406 -0.5586,25.34766 -0.39844,4.86328 -1.51562,6.61718 -3.58984,6.61718 h -2.70703 c -0.32032,0 -0.48047,0.32032 -0.48047,0.47657 v 1.99609 c 0,0.55469 0.16015,0.71484 0.48047,0.71484 0.79687,0 6.21484,-0.23828 8.28906,-0.23828 3.02734,0 7.8125,0.23828 8.60937,0.23828 0.63672,0 0.63672,-0.16015 0.63672,-0.63672 v -1.83203 c 0,-0.39843 0,-0.71875 -0.63672,-0.71875 h -2.07421 c -2.86719,0 -3.82422,-1.91406 -3.98438,-5.89843 -0.16016,-2.47266 -0.79687,-13.63282 -0.79687,-27.1836 z m 101.07421,28.85546 c -0.48046,-0.16015 -0.64062,0 -0.95703,0.32032 -1.11718,3.02734 -6.21875,12.59375 -10.68359,13.23047 -3.1875,0.39843 -8.92578,0.39843 -13.39063,0.39843 h -4.46484 c -0.31641,-3.42968 -0.31641,-20.64453 -0.31641,-22.08203 V 25.75 c 0,-5.58203 0.31641,-17.53906 0.31641,-18.65234 0,-2.15235 0.32031,-2.95313 2.71094,-2.95313 h 4.30469 c 0.63671,0 0.79687,-0.31641 0.79687,-0.63672 V 1.67578 c 0,-0.39844 -0.16016,-0.71875 -0.79687,-0.71875 -0.63672,0 -3.98438,0.23828 -12.59375,0.23828 -7.33204,0 -10.20313,-0.23828 -11,-0.23828 -0.47657,0 -0.63672,0.16016 -0.63672,0.63672 v 1.83594 c 0,0.23828 0.16015,0.71484 0.63672,0.71484 h 3.34765 c 2.07422,0 2.39063,0.80078 2.55078,2.87109 0.16016,1.35547 0.32032,9.80469 0.32032,14.90625 v 4.46485 c 0,4.78125 -0.32032,24.71094 -0.32032,26.14453 0,1.03516 -0.47656,2.15234 -3.34765,2.15234 h -3.1875 c -0.48047,0 -0.48047,0.16016 -0.48047,0.63672 v 1.83594 c 0,0.55469 0,0.71484 0.64062,0.71484 0.95313,0 3.82422,-0.23828 11,-0.23828 8.12891,0 31.08594,0.16016 33.16016,0.23828 0.47656,-2.15234 3.66406,-15.38281 3.98437,-15.86328 0,-0.47656 0,-0.63672 -0.16015,-0.79687 z m 10.83985,-11 c 0,9.2461 -0.16016,21.67969 -0.23828,22.47657 -0.23828,2.15234 -0.87891,2.47265 -3.58985,2.47265 H 281.375 c -0.47656,0 -0.47656,0.16016 -0.47656,0.63672 v 1.99219 c 0,0.24219 0,0.55859 0.63672,0.55859 0.79687,0 3.98828,-0.23828 11,-0.23828 8.60937,0 11.16015,0.23828 12.27734,0.23828 0.63672,0 0.63672,-0.3164 0.63672,-0.79687 v -1.83203 c 0,-0.23828 0,-0.5586 -0.63672,-0.5586 h -4.46484 c -1.4336,0 -2.23047,-0.79687 -2.46875,-2.55078 -0.082,-1.03515 -0.082,-11.8789 -0.082,-15.70312 v -3.50782 c 2.07422,0.32032 4.46484,0.32032 7.17578,0.32032 13.55078,0 21.20312,-6.21875 21.20312,-16.10157 0,-4.9414 -2.39062,-9.40625 -6.05859,-12.11718 -4.625,-3.1875 -9.24609,-4.06641 -18.8125,-4.06641 -2.71094,0 -7.33203,0.23828 -8.76953,0.23828 -7.96875,0 -10.83985,-0.23828 -11.79688,-0.23828 -0.3164,0 -0.47656,0.16016 -0.47656,0.63672 v 1.99609 c 0,0.39844 0.16016,0.55469 0.47656,0.55469 h 4.14453 c 1.75391,0 2.63282,0.40234 2.79297,1.75391 0.0781,0.8789 0.0781,9.32812 0.0781,14.58984 z M 297.79688,4.22656 c 1.27734,-0.63672 3.1875,-0.55859 4.625,-0.55859 3.82422,0 12.59375,2.47265 12.59375,13.3125 0,2.86719 -0.32032,5.89844 -1.91407,8.28906 -1.91406,2.71094 -6.05859,5.42188 -9.5664,5.42188 -2.07031,0 -4.30469,-0.16016 -5.73828,-0.64063 z m 0,0"
     id="path644" />
</svg>
